<svg width="16" height="17" viewBox="0 0 16 17" fill="none" xmlns="http://www.w3.org/2000/svg">
<g clip-path="url(#clip0_30_4036)">
<path d="M9.80467 4.70548L13.576 8.47681C13.701 8.60183 13.7712 8.77137 13.7712 8.94815C13.7712 9.12492 13.701 9.29446 13.576 9.41948L9.80467 13.1908C9.67893 13.3123 9.51053 13.3794 9.33573 13.3779C9.16093 13.3764 8.99373 13.3063 8.87012 13.1827C8.74652 13.0591 8.6764 12.8919 8.67488 12.7171C8.67337 12.5423 8.74056 12.3739 8.862 12.2481L11.4953 9.61481H2.66667C2.48986 9.61481 2.32029 9.54457 2.19526 9.41955C2.07024 9.29453 2 9.12496 2 8.94815C2 8.77133 2.07024 8.60177 2.19526 8.47674C2.32029 8.35172 2.48986 8.28148 2.66667 8.28148H11.4953L8.862 5.64815C8.79833 5.58665 8.74754 5.51308 8.7126 5.43175C8.67766 5.35041 8.65927 5.26293 8.6585 5.17441C8.65773 5.08589 8.6746 4.99811 8.70812 4.91618C8.74164 4.83424 8.79114 4.75981 8.85374 4.69722C8.91633 4.63462 8.99077 4.58512 9.0727 4.5516C9.15463 4.51808 9.24241 4.50121 9.33093 4.50198C9.41945 4.50275 9.50693 4.52114 9.58827 4.55608C9.66961 4.59102 9.74317 4.64181 9.80467 4.70548Z" fill="#21282B"/>
</g>
<defs>
<clipPath id="clip0_30_4036">
<rect width="16" height="16" fill="white" transform="translate(0 0.948242)"/>
</clipPath>
</defs>
</svg>
