<svg width="180" height="42" viewBox="0 0 180 42" fill="none" xmlns="http://www.w3.org/2000/svg">
<path d="M46.6218 39.6631V33.5971H47.4678V39.6631H46.6218ZM44.4978 34.1911V33.4171H49.5828V34.1911H44.4978ZM51.3303 39.7531C50.9043 39.7531 50.5203 39.6571 50.1783 39.4651C49.8363 39.2671 49.5663 39.0001 49.3683 38.6641C49.1703 38.3281 49.0713 37.9471 49.0713 37.5211C49.0713 37.1011 49.1673 36.7231 49.3593 36.3871C49.5573 36.0511 49.8213 35.7871 50.1513 35.5951C50.4873 35.3971 50.8623 35.2981 51.2763 35.2981C51.6723 35.2981 52.0203 35.3881 52.3203 35.5681C52.6263 35.7481 52.8633 35.9971 53.0313 36.3151C53.2053 36.6331 53.2923 36.9931 53.2923 37.3951C53.2923 37.4551 53.2893 37.5211 53.2833 37.5931C53.2773 37.6591 53.2653 37.7371 53.2473 37.8271H49.6383V37.1521H52.8153L52.5183 37.4131C52.5183 37.1251 52.4673 36.8821 52.3653 36.6841C52.2633 36.4801 52.1193 36.3241 51.9333 36.2161C51.7473 36.1021 51.5223 36.0451 51.2583 36.0451C50.9823 36.0451 50.7393 36.1051 50.5293 36.2251C50.3193 36.3451 50.1573 36.5131 50.0433 36.7291C49.9293 36.9451 49.8723 37.2001 49.8723 37.4941C49.8723 37.7941 49.9323 38.0581 50.0523 38.2861C50.1723 38.5081 50.3433 38.6821 50.5653 38.8081C50.7873 38.9281 51.0423 38.9881 51.3303 38.9881C51.5703 38.9881 51.7893 38.9461 51.9873 38.8621C52.1913 38.7781 52.3653 38.6521 52.5093 38.4841L53.0313 39.0151C52.8273 39.2551 52.5753 39.4381 52.2753 39.5641C51.9813 39.6901 51.6663 39.7531 51.3303 39.7531ZM56.2185 39.7531C55.7985 39.7531 55.4175 39.6541 55.0755 39.4561C54.7395 39.2581 54.4725 38.9911 54.2745 38.6551C54.0825 38.3131 53.9865 37.9351 53.9865 37.5211C53.9865 37.1011 54.0825 36.7231 54.2745 36.3871C54.4725 36.0511 54.7395 35.7871 55.0755 35.5951C55.4175 35.3971 55.7985 35.2981 56.2185 35.2981C56.5485 35.2981 56.8545 35.3611 57.1365 35.4871C57.4185 35.6071 57.6615 35.7841 57.8655 36.0181L57.3255 36.5581C57.1935 36.4021 57.0315 36.2851 56.8395 36.2071C56.6535 36.1231 56.4465 36.0811 56.2185 36.0811C55.9485 36.0811 55.7085 36.1441 55.4985 36.2701C55.2885 36.3901 55.1235 36.5581 55.0035 36.7741C54.8835 36.9901 54.8235 37.2391 54.8235 37.5211C54.8235 37.8031 54.8835 38.0521 55.0035 38.2681C55.1235 38.4841 55.2885 38.6551 55.4985 38.7811C55.7085 38.9071 55.9485 38.9701 56.2185 38.9701C56.4465 38.9701 56.6535 38.9311 56.8395 38.8531C57.0315 38.7691 57.1965 38.6491 57.3345 38.4931L57.8655 39.0331C57.6675 39.2611 57.4245 39.4381 57.1365 39.5641C56.8545 39.6901 56.5485 39.7531 56.2185 39.7531ZM61.7828 39.6631V37.1701C61.7828 36.8461 61.6808 36.5791 61.4768 36.3691C61.2728 36.1591 61.0088 36.0541 60.6848 36.0541C60.4688 36.0541 60.2768 36.1021 60.1088 36.1981C59.9408 36.2941 59.8088 36.4261 59.7128 36.5941C59.6168 36.7621 59.5688 36.9541 59.5688 37.1701L59.2358 36.9811C59.2358 36.6571 59.3078 36.3691 59.4518 36.1171C59.5958 35.8651 59.7968 35.6671 60.0548 35.5231C60.3128 35.3731 60.6038 35.2981 60.9278 35.2981C61.2518 35.2981 61.5368 35.3701 61.7828 35.5141C62.0348 35.6581 62.2328 35.8591 62.3768 36.1171C62.5208 36.3751 62.5928 36.6721 62.5928 37.0081V39.6631H61.7828ZM58.7588 39.6631V33.2371H59.5688V39.6631H58.7588ZM66.8034 39.6631V37.1701C66.8034 36.8461 66.7014 36.5791 66.4974 36.3691C66.2934 36.1591 66.0294 36.0541 65.7054 36.0541C65.4894 36.0541 65.2974 36.1021 65.1294 36.1981C64.9614 36.2941 64.8294 36.4261 64.7334 36.5941C64.6374 36.7621 64.5894 36.9541 64.5894 37.1701L64.2564 36.9811C64.2564 36.6571 64.3284 36.3691 64.4724 36.1171C64.6164 35.8651 64.8174 35.6671 65.0754 35.5231C65.3334 35.3731 65.6244 35.2981 65.9484 35.2981C66.2724 35.2981 66.5574 35.3791 66.8034 35.5411C67.0554 35.7031 67.2534 35.9161 67.3974 36.1801C67.5414 36.4381 67.6134 36.7141 67.6134 37.0081V39.6631H66.8034ZM63.7794 39.6631V35.3881H64.5894V39.6631H63.7794ZM70.7531 39.7531C70.3331 39.7531 69.9551 39.6541 69.6191 39.4561C69.2831 39.2581 69.0161 38.9911 68.8181 38.6551C68.6201 38.3131 68.5211 37.9321 68.5211 37.5121C68.5211 37.0981 68.6201 36.7261 68.8181 36.3961C69.0161 36.0601 69.2831 35.7931 69.6191 35.5951C69.9551 35.3971 70.3331 35.2981 70.7531 35.2981C71.1671 35.2981 71.5421 35.3971 71.8781 35.5951C72.2201 35.7871 72.4901 36.0511 72.6881 36.3871C72.8861 36.7231 72.9851 37.0981 72.9851 37.5121C72.9851 37.9321 72.8861 38.3131 72.6881 38.6551C72.4901 38.9911 72.2201 39.2581 71.8781 39.4561C71.5421 39.6541 71.1671 39.7531 70.7531 39.7531ZM70.7531 38.9701C71.0231 38.9701 71.2631 38.9071 71.4731 38.7811C71.6831 38.6551 71.8481 38.4841 71.9681 38.2681C72.0881 38.0461 72.1481 37.7941 72.1481 37.5121C72.1481 37.2361 72.0851 36.9901 71.9591 36.7741C71.8391 36.5581 71.6741 36.3901 71.4641 36.2701C71.2601 36.1441 71.0231 36.0811 70.7531 36.0811C70.4831 36.0811 70.2431 36.1441 70.0331 36.2701C69.8231 36.3901 69.6581 36.5581 69.5381 36.7741C69.4181 36.9901 69.3581 37.2361 69.3581 37.5121C69.3581 37.7941 69.4181 38.0461 69.5381 38.2681C69.6581 38.4841 69.8231 38.6551 70.0331 38.7811C70.2431 38.9071 70.4831 38.9701 70.7531 38.9701ZM73.9878 39.6631V33.2371H74.7978V39.6631H73.9878ZM78.0259 39.7531C77.6059 39.7531 77.2279 39.6541 76.8919 39.4561C76.5559 39.2581 76.2889 38.9911 76.0909 38.6551C75.8929 38.3131 75.7939 37.9321 75.7939 37.5121C75.7939 37.0981 75.8929 36.7261 76.0909 36.3961C76.2889 36.0601 76.5559 35.7931 76.8919 35.5951C77.2279 35.3971 77.6059 35.2981 78.0259 35.2981C78.4399 35.2981 78.8149 35.3971 79.1509 35.5951C79.4929 35.7871 79.7629 36.0511 79.9609 36.3871C80.1589 36.7231 80.2579 37.0981 80.2579 37.5121C80.2579 37.9321 80.1589 38.3131 79.9609 38.6551C79.7629 38.9911 79.4929 39.2581 79.1509 39.4561C78.8149 39.6541 78.4399 39.7531 78.0259 39.7531ZM78.0259 38.9701C78.2959 38.9701 78.5359 38.9071 78.7459 38.7811C78.9559 38.6551 79.1209 38.4841 79.2409 38.2681C79.3609 38.0461 79.4209 37.7941 79.4209 37.5121C79.4209 37.2361 79.3579 36.9901 79.2319 36.7741C79.1119 36.5581 78.9469 36.3901 78.7369 36.2701C78.5329 36.1441 78.2959 36.0811 78.0259 36.0811C77.7559 36.0811 77.5159 36.1441 77.3059 36.2701C77.0959 36.3901 76.9309 36.5581 76.8109 36.7741C76.6909 36.9901 76.6309 37.2361 76.6309 37.5121C76.6309 37.7941 76.6909 38.0461 76.8109 38.2681C76.9309 38.4841 77.0959 38.6551 77.3059 38.7811C77.5159 38.9071 77.7559 38.9701 78.0259 38.9701ZM83.0335 41.5441C82.5955 41.5441 82.2055 41.4631 81.8635 41.3011C81.5275 41.1391 81.2575 40.9111 81.0535 40.6171L81.5755 40.0861C81.7495 40.3081 81.9565 40.4761 82.1965 40.5901C82.4365 40.7101 82.7215 40.7701 83.0515 40.7701C83.4895 40.7701 83.8345 40.6531 84.0865 40.4191C84.3445 40.1911 84.4735 39.8821 84.4735 39.4921V38.4301L84.6175 37.4671L84.4735 36.5131V35.3881H85.2835V39.4921C85.2835 39.9001 85.1875 40.2571 84.9955 40.5631C84.8095 40.8691 84.5455 41.1091 84.2035 41.2831C83.8675 41.4571 83.4775 41.5441 83.0335 41.5441ZM83.0335 39.5911C82.6435 39.5911 82.2925 39.4981 81.9805 39.3121C81.6745 39.1261 81.4315 38.8711 81.2515 38.5471C81.0715 38.2171 80.9815 37.8481 80.9815 37.4401C80.9815 37.0321 81.0715 36.6691 81.2515 36.3511C81.4315 36.0271 81.6745 35.7721 81.9805 35.5861C82.2925 35.3941 82.6435 35.2981 83.0335 35.2981C83.3695 35.2981 83.6665 35.3641 83.9245 35.4961C84.1825 35.6281 84.3865 35.8141 84.5365 36.0541C84.6925 36.2881 84.7765 36.5641 84.7885 36.8821V38.0161C84.7705 38.3281 84.6835 38.6041 84.5275 38.8441C84.3775 39.0781 84.1735 39.2611 83.9155 39.3931C83.6575 39.5251 83.3635 39.5911 83.0335 39.5911ZM83.1955 38.8261C83.4595 38.8261 83.6905 38.7691 83.8885 38.6551C84.0925 38.5411 84.2485 38.3821 84.3565 38.1781C84.4645 37.9681 84.5185 37.7251 84.5185 37.4491C84.5185 37.1731 84.4615 36.9331 84.3475 36.7291C84.2395 36.5191 84.0865 36.3571 83.8885 36.2431C83.6905 36.1231 83.4565 36.0631 83.1865 36.0631C82.9165 36.0631 82.6795 36.1231 82.4755 36.2431C82.2715 36.3571 82.1095 36.5191 81.9895 36.7291C81.8755 36.9331 81.8185 37.1701 81.8185 37.4401C81.8185 37.7101 81.8755 37.9501 81.9895 38.1601C82.1095 38.3701 82.2715 38.5351 82.4755 38.6551C82.6855 38.7691 82.9255 38.8261 83.1955 38.8261ZM87.9664 39.6991L86.1124 35.3881H87.0124L88.3894 38.7631H88.1014L89.5504 35.3881H90.4504L88.4524 39.6991H87.9664ZM86.7424 41.4541L88.0024 38.8711L88.4524 39.6991L87.6424 41.4541H86.7424ZM96.2166 39.7531C95.7666 39.7531 95.3496 39.6721 94.9656 39.5101C94.5816 39.3421 94.2456 39.1111 93.9576 38.8171C93.6756 38.5231 93.4566 38.1811 93.3006 37.7911C93.1446 37.4011 93.0666 36.9841 93.0666 36.5401C93.0666 36.0901 93.1446 35.6701 93.3006 35.2801C93.4566 34.8901 93.6756 34.5511 93.9576 34.2631C94.2456 33.9691 94.5786 33.7411 94.9566 33.5791C95.3406 33.4111 95.7576 33.3271 96.2076 33.3271C96.6996 33.3271 97.1316 33.4111 97.5036 33.5791C97.8756 33.7471 98.2056 33.9751 98.4936 34.2631L97.9086 34.8481C97.7106 34.6261 97.4676 34.4521 97.1796 34.3261C96.8976 34.2001 96.5736 34.1371 96.2076 34.1371C95.8776 34.1371 95.5746 34.1971 95.2986 34.3171C95.0226 34.4311 94.7826 34.5961 94.5786 34.8121C94.3746 35.0281 94.2156 35.2831 94.1016 35.5771C93.9936 35.8711 93.9396 36.1921 93.9396 36.5401C93.9396 36.8881 93.9936 37.2091 94.1016 37.5031C94.2156 37.7971 94.3746 38.0521 94.5786 38.2681C94.7826 38.4841 95.0226 38.6521 95.2986 38.7721C95.5746 38.8861 95.8776 38.9431 96.2076 38.9431C96.5976 38.9431 96.9366 38.8801 97.2246 38.7541C97.5126 38.6221 97.7556 38.4451 97.9536 38.2231L98.5386 38.7991C98.2506 39.0991 97.9116 39.3331 97.5216 39.5011C97.1376 39.6691 96.7026 39.7531 96.2166 39.7531ZM101.327 39.7531C100.907 39.7531 100.529 39.6541 100.193 39.4561C99.8574 39.2581 99.5904 38.9911 99.3924 38.6551C99.1944 38.3131 99.0954 37.9321 99.0954 37.5121C99.0954 37.0981 99.1944 36.7261 99.3924 36.3961C99.5904 36.0601 99.8574 35.7931 100.193 35.5951C100.529 35.3971 100.907 35.2981 101.327 35.2981C101.741 35.2981 102.116 35.3971 102.452 35.5951C102.794 35.7871 103.064 36.0511 103.262 36.3871C103.46 36.7231 103.559 37.0981 103.559 37.5121C103.559 37.9321 103.46 38.3131 103.262 38.6551C103.064 38.9911 102.794 39.2581 102.452 39.4561C102.116 39.6541 101.741 39.7531 101.327 39.7531ZM101.327 38.9701C101.597 38.9701 101.837 38.9071 102.047 38.7811C102.257 38.6551 102.422 38.4841 102.542 38.2681C102.662 38.0461 102.722 37.7941 102.722 37.5121C102.722 37.2361 102.659 36.9901 102.533 36.7741C102.413 36.5581 102.248 36.3901 102.038 36.2701C101.834 36.1441 101.597 36.0811 101.327 36.0811C101.057 36.0811 100.817 36.1441 100.607 36.2701C100.397 36.3901 100.232 36.5581 100.112 36.7741C99.9924 36.9901 99.9324 37.2361 99.9324 37.5121C99.9324 37.7941 99.9924 38.0461 100.112 38.2681C100.232 38.4841 100.397 38.6551 100.607 38.7811C100.817 38.9071 101.057 38.9701 101.327 38.9701ZM107.586 39.6631V37.1701C107.586 36.8461 107.484 36.5791 107.28 36.3691C107.076 36.1591 106.812 36.0541 106.488 36.0541C106.272 36.0541 106.08 36.1021 105.912 36.1981C105.744 36.2941 105.612 36.4261 105.516 36.5941C105.42 36.7621 105.372 36.9541 105.372 37.1701L105.039 36.9811C105.039 36.6571 105.111 36.3691 105.255 36.1171C105.399 35.8651 105.6 35.6671 105.858 35.5231C106.116 35.3731 106.407 35.2981 106.731 35.2981C107.055 35.2981 107.34 35.3791 107.586 35.5411C107.838 35.7031 108.036 35.9161 108.18 36.1801C108.324 36.4381 108.396 36.7141 108.396 37.0081V39.6631H107.586ZM104.562 39.6631V35.3881H105.372V39.6631H104.562ZM110.942 39.7531C110.702 39.7531 110.474 39.7231 110.258 39.6631C110.048 39.5971 109.853 39.5071 109.673 39.3931C109.493 39.2731 109.337 39.1321 109.205 38.9701L109.727 38.4481C109.883 38.6401 110.063 38.7841 110.267 38.8801C110.471 38.9701 110.699 39.0151 110.951 39.0151C111.203 39.0151 111.398 38.9731 111.536 38.8891C111.674 38.7991 111.743 38.6761 111.743 38.5201C111.743 38.3641 111.686 38.2441 111.572 38.1601C111.464 38.0701 111.323 37.9981 111.149 37.9441C110.975 37.8841 110.789 37.8271 110.591 37.7731C110.399 37.7131 110.216 37.6381 110.042 37.5481C109.868 37.4581 109.724 37.3351 109.61 37.1791C109.502 37.0231 109.448 36.8161 109.448 36.5581C109.448 36.3001 109.511 36.0781 109.637 35.8921C109.763 35.7001 109.937 35.5531 110.159 35.4511C110.387 35.3491 110.66 35.2981 110.978 35.2981C111.314 35.2981 111.611 35.3581 111.869 35.4781C112.133 35.5921 112.349 35.7661 112.517 36.0001L111.995 36.5221C111.875 36.3661 111.725 36.2461 111.545 36.1621C111.371 36.0781 111.173 36.0361 110.951 36.0361C110.717 36.0361 110.537 36.0781 110.411 36.1621C110.291 36.2401 110.231 36.3511 110.231 36.4951C110.231 36.6391 110.285 36.7501 110.393 36.8281C110.501 36.9061 110.642 36.9721 110.816 37.0261C110.996 37.0801 111.182 37.1371 111.374 37.1971C111.566 37.2511 111.749 37.3261 111.923 37.4221C112.097 37.5181 112.238 37.6471 112.346 37.8091C112.46 37.9711 112.517 38.1841 112.517 38.4481C112.517 38.8501 112.373 39.1681 112.085 39.4021C111.803 39.6361 111.422 39.7531 110.942 39.7531ZM115.233 39.7531C114.885 39.7531 114.57 39.6751 114.288 39.5191C114.012 39.3571 113.796 39.1351 113.64 38.8531C113.484 38.5711 113.406 38.2441 113.406 37.8721V35.3881H114.216V37.8361C114.216 38.0701 114.255 38.2741 114.333 38.4481C114.417 38.6161 114.537 38.7451 114.693 38.8351C114.849 38.9251 115.032 38.9701 115.242 38.9701C115.56 38.9701 115.809 38.8711 115.989 38.6731C116.169 38.4691 116.259 38.1901 116.259 37.8361V35.3881H117.069V37.8721C117.069 38.2441 116.991 38.5711 116.835 38.8531C116.679 39.1351 116.463 39.3571 116.187 39.5191C115.917 39.6751 115.599 39.7531 115.233 39.7531ZM118.244 39.6631V33.2371H119.054V39.6631H118.244ZM120.986 39.6631V33.5971H121.796V39.6631H120.986ZM119.933 36.1261V35.3881H122.849V36.1261H119.933ZM123.742 39.6631V35.3881H124.552V39.6631H123.742ZM124.147 34.5331C123.997 34.5331 123.874 34.4851 123.778 34.3891C123.682 34.2871 123.634 34.1611 123.634 34.0111C123.634 33.8671 123.682 33.7471 123.778 33.6511C123.874 33.5491 123.997 33.4981 124.147 33.4981C124.297 33.4981 124.42 33.5491 124.516 33.6511C124.612 33.7471 124.66 33.8671 124.66 34.0111C124.66 34.1611 124.612 34.2871 124.516 34.3891C124.42 34.4851 124.297 34.5331 124.147 34.5331ZM128.859 39.6631V37.1701C128.859 36.8461 128.757 36.5791 128.553 36.3691C128.349 36.1591 128.085 36.0541 127.761 36.0541C127.545 36.0541 127.353 36.1021 127.185 36.1981C127.017 36.2941 126.885 36.4261 126.789 36.5941C126.693 36.7621 126.645 36.9541 126.645 37.1701L126.312 36.9811C126.312 36.6571 126.384 36.3691 126.528 36.1171C126.672 35.8651 126.873 35.6671 127.131 35.5231C127.389 35.3731 127.68 35.2981 128.004 35.2981C128.328 35.2981 128.613 35.3791 128.859 35.5411C129.111 35.7031 129.309 35.9161 129.453 36.1801C129.597 36.4381 129.669 36.7141 129.669 37.0081V39.6631H128.859ZM125.835 39.6631V35.3881H126.645V39.6631H125.835ZM132.629 41.5441C132.191 41.5441 131.801 41.4631 131.459 41.3011C131.123 41.1391 130.853 40.9111 130.649 40.6171L131.171 40.0861C131.345 40.3081 131.552 40.4761 131.792 40.5901C132.032 40.7101 132.317 40.7701 132.647 40.7701C133.085 40.7701 133.43 40.6531 133.682 40.4191C133.94 40.1911 134.069 39.8821 134.069 39.4921V38.4301L134.213 37.4671L134.069 36.5131V35.3881H134.879V39.4921C134.879 39.9001 134.783 40.2571 134.591 40.5631C134.405 40.8691 134.141 41.1091 133.799 41.2831C133.463 41.4571 133.073 41.5441 132.629 41.5441ZM132.629 39.5911C132.239 39.5911 131.888 39.4981 131.576 39.3121C131.27 39.1261 131.027 38.8711 130.847 38.5471C130.667 38.2171 130.577 37.8481 130.577 37.4401C130.577 37.0321 130.667 36.6691 130.847 36.3511C131.027 36.0271 131.27 35.7721 131.576 35.5861C131.888 35.3941 132.239 35.2981 132.629 35.2981C132.965 35.2981 133.262 35.3641 133.52 35.4961C133.778 35.6281 133.982 35.8141 134.132 36.0541C134.288 36.2881 134.372 36.5641 134.384 36.8821V38.0161C134.366 38.3281 134.279 38.6041 134.123 38.8441C133.973 39.0781 133.769 39.2611 133.511 39.3931C133.253 39.5251 132.959 39.5911 132.629 39.5911ZM132.791 38.8261C133.055 38.8261 133.286 38.7691 133.484 38.6551C133.688 38.5411 133.844 38.3821 133.952 38.1781C134.06 37.9681 134.114 37.7251 134.114 37.4491C134.114 37.1731 134.057 36.9331 133.943 36.7291C133.835 36.5191 133.682 36.3571 133.484 36.2431C133.286 36.1231 133.052 36.0631 132.782 36.0631C132.512 36.0631 132.275 36.1231 132.071 36.2431C131.867 36.3571 131.705 36.5191 131.585 36.7291C131.471 36.9331 131.414 37.1701 131.414 37.4401C131.414 37.7101 131.471 37.9501 131.585 38.1601C131.705 38.3701 131.867 38.5351 132.071 38.6551C132.281 38.7691 132.521 38.8261 132.791 38.8261ZM141.099 39.7531C140.649 39.7531 140.232 39.6721 139.848 39.5101C139.464 39.3421 139.128 39.1111 138.84 38.8171C138.558 38.5231 138.339 38.1811 138.183 37.7911C138.027 37.4011 137.949 36.9841 137.949 36.5401C137.949 36.0901 138.027 35.6701 138.183 35.2801C138.339 34.8901 138.558 34.5511 138.84 34.2631C139.128 33.9691 139.461 33.7411 139.839 33.5791C140.223 33.4111 140.64 33.3271 141.09 33.3271C141.582 33.3271 142.014 33.4111 142.386 33.5791C142.758 33.7471 143.088 33.9751 143.376 34.2631L142.791 34.8481C142.593 34.6261 142.35 34.4521 142.062 34.3261C141.78 34.2001 141.456 34.1371 141.09 34.1371C140.76 34.1371 140.457 34.1971 140.181 34.3171C139.905 34.4311 139.665 34.5961 139.461 34.8121C139.257 35.0281 139.098 35.2831 138.984 35.5771C138.876 35.8711 138.822 36.1921 138.822 36.5401C138.822 36.8881 138.876 37.2091 138.984 37.5031C139.098 37.7971 139.257 38.0521 139.461 38.2681C139.665 38.4841 139.905 38.6521 140.181 38.7721C140.457 38.8861 140.76 38.9431 141.09 38.9431C141.48 38.9431 141.819 38.8801 142.107 38.7541C142.395 38.6221 142.638 38.4451 142.836 38.2231L143.421 38.7991C143.133 39.0991 142.794 39.3331 142.404 39.5011C142.02 39.6691 141.585 39.7531 141.099 39.7531ZM146.21 39.7531C145.79 39.7531 145.412 39.6541 145.076 39.4561C144.74 39.2581 144.473 38.9911 144.275 38.6551C144.077 38.3131 143.978 37.9321 143.978 37.5121C143.978 37.0981 144.077 36.7261 144.275 36.3961C144.473 36.0601 144.74 35.7931 145.076 35.5951C145.412 35.3971 145.79 35.2981 146.21 35.2981C146.624 35.2981 146.999 35.3971 147.335 35.5951C147.677 35.7871 147.947 36.0511 148.145 36.3871C148.343 36.7231 148.442 37.0981 148.442 37.5121C148.442 37.9321 148.343 38.3131 148.145 38.6551C147.947 38.9911 147.677 39.2581 147.335 39.4561C146.999 39.6541 146.624 39.7531 146.21 39.7531ZM146.21 38.9701C146.48 38.9701 146.72 38.9071 146.93 38.7811C147.14 38.6551 147.305 38.4841 147.425 38.2681C147.545 38.0461 147.605 37.7941 147.605 37.5121C147.605 37.2361 147.542 36.9901 147.416 36.7741C147.296 36.5581 147.131 36.3901 146.921 36.2701C146.717 36.1441 146.48 36.0811 146.21 36.0811C145.94 36.0811 145.7 36.1441 145.49 36.2701C145.28 36.3901 145.115 36.5581 144.995 36.7741C144.875 36.9901 144.815 37.2361 144.815 37.5121C144.815 37.7941 144.875 38.0461 144.995 38.2681C145.115 38.4841 145.28 38.6551 145.49 38.7811C145.7 38.9071 145.94 38.9701 146.21 38.9701ZM149.445 39.6631V35.3881H150.255V39.6631H149.445ZM152.334 39.6631V37.0801C152.334 36.7621 152.235 36.5131 152.037 36.3331C151.845 36.1471 151.602 36.0541 151.308 36.0541C151.11 36.0541 150.933 36.0961 150.777 36.1801C150.621 36.2641 150.495 36.3811 150.399 36.5311C150.303 36.6811 150.255 36.8611 150.255 37.0711L149.922 36.9091C149.922 36.5851 149.991 36.3031 150.129 36.0631C150.273 35.8231 150.468 35.6371 150.714 35.5051C150.96 35.3671 151.236 35.2981 151.542 35.2981C151.842 35.2981 152.112 35.3641 152.352 35.4961C152.598 35.6281 152.79 35.8141 152.928 36.0541C153.072 36.2941 153.144 36.5791 153.144 36.9091V39.6631H152.334ZM155.223 39.6631V37.0801C155.223 36.7621 155.124 36.5131 154.926 36.3331C154.734 36.1471 154.494 36.0541 154.206 36.0541C154.008 36.0541 153.828 36.0961 153.666 36.1801C153.51 36.2641 153.384 36.3811 153.288 36.5311C153.192 36.6811 153.144 36.8611 153.144 37.0711L152.685 36.9091C152.703 36.5791 152.79 36.2971 152.946 36.0631C153.108 35.8231 153.315 35.6371 153.567 35.5051C153.819 35.3671 154.095 35.2981 154.395 35.2981C154.707 35.2981 154.986 35.3641 155.232 35.4961C155.478 35.6281 155.673 35.8141 155.817 36.0541C155.967 36.2941 156.042 36.5821 156.042 36.9181V39.6631H155.223ZM159.484 39.7531C159.16 39.7531 158.866 39.6871 158.602 39.5551C158.344 39.4171 158.137 39.2281 157.981 38.9881C157.825 38.7481 157.738 38.4751 157.72 38.1691V36.8821C157.738 36.5701 157.825 36.2971 157.981 36.0631C158.143 35.8231 158.353 35.6371 158.611 35.5051C158.875 35.3671 159.166 35.2981 159.484 35.2981C159.874 35.2981 160.225 35.3971 160.537 35.5951C160.855 35.7931 161.104 36.0601 161.284 36.3961C161.464 36.7321 161.554 37.1101 161.554 37.5301C161.554 37.9501 161.464 38.3281 161.284 38.6641C161.104 39.0001 160.855 39.2671 160.537 39.4651C160.225 39.6571 159.874 39.7531 159.484 39.7531ZM159.349 38.9881C159.619 38.9881 159.856 38.9251 160.06 38.7991C160.264 38.6731 160.426 38.5021 160.546 38.2861C160.666 38.0641 160.726 37.8091 160.726 37.5211C160.726 37.2391 160.666 36.9871 160.546 36.7651C160.426 36.5431 160.264 36.3721 160.06 36.2521C159.856 36.1261 159.622 36.0631 159.358 36.0631C159.088 36.0631 158.851 36.1261 158.647 36.2521C158.443 36.3721 158.284 36.5431 158.17 36.7651C158.056 36.9871 157.999 37.2421 157.999 37.5301C157.999 37.8121 158.053 38.0641 158.161 38.2861C158.275 38.5021 158.434 38.6731 158.638 38.7991C158.848 38.9251 159.085 38.9881 159.349 38.9881ZM157.234 41.4541V35.3881H158.044V36.5131L157.891 37.5481L158.044 38.5921V41.4541H157.234ZM164.38 39.7531C163.99 39.7531 163.636 39.6571 163.318 39.4651C163 39.2671 162.748 39.0001 162.562 38.6641C162.382 38.3281 162.292 37.9501 162.292 37.5301C162.292 37.1101 162.382 36.7321 162.562 36.3961C162.748 36.0601 162.997 35.7931 163.309 35.5951C163.627 35.3971 163.984 35.2981 164.38 35.2981C164.704 35.2981 164.992 35.3671 165.244 35.5051C165.502 35.6371 165.709 35.8231 165.865 36.0631C166.021 36.2971 166.108 36.5701 166.126 36.8821V38.1691C166.108 38.4751 166.021 38.7481 165.865 38.9881C165.715 39.2281 165.511 39.4171 165.253 39.5551C165.001 39.6871 164.71 39.7531 164.38 39.7531ZM164.515 38.9881C164.917 38.9881 165.241 38.8531 165.487 38.5831C165.733 38.3071 165.856 37.9561 165.856 37.5301C165.856 37.2361 165.799 36.9811 165.685 36.7651C165.577 36.5431 165.421 36.3721 165.217 36.2521C165.013 36.1261 164.776 36.0631 164.506 36.0631C164.236 36.0631 163.996 36.1261 163.786 36.2521C163.582 36.3781 163.42 36.5521 163.3 36.7741C163.186 36.9901 163.129 37.2391 163.129 37.5211C163.129 37.8091 163.186 38.0641 163.3 38.2861C163.42 38.5021 163.585 38.6731 163.795 38.7991C164.005 38.9251 164.245 38.9881 164.515 38.9881ZM165.802 39.6631V38.5111L165.955 37.4671L165.802 36.4321V35.3881H166.621V39.6631H165.802ZM170.914 39.6631V37.1701C170.914 36.8461 170.812 36.5791 170.608 36.3691C170.404 36.1591 170.14 36.0541 169.816 36.0541C169.6 36.0541 169.408 36.1021 169.24 36.1981C169.072 36.2941 168.94 36.4261 168.844 36.5941C168.748 36.7621 168.7 36.9541 168.7 37.1701L168.367 36.9811C168.367 36.6571 168.439 36.3691 168.583 36.1171C168.727 35.8651 168.928 35.6671 169.186 35.5231C169.444 35.3731 169.735 35.2981 170.059 35.2981C170.383 35.2981 170.668 35.3791 170.914 35.5411C171.166 35.7031 171.364 35.9161 171.508 36.1801C171.652 36.4381 171.724 36.7141 171.724 37.0081V39.6631H170.914ZM167.89 39.6631V35.3881H168.7V39.6631H167.89ZM174.315 39.6991L172.461 35.3881H173.361L174.738 38.7631H174.45L175.899 35.3881H176.799L174.801 39.6991H174.315ZM173.091 41.4541L174.351 38.8711L174.801 39.6991L173.991 41.4541H173.091Z" fill="#878787"/>
<path d="M45.8074 26.2339V7.83245H49.4716V26.2339H45.8074ZM39.8162 10.6676V7.43126H55.4628V10.6676H39.8162ZM60.5657 26.5013C59.2105 26.5013 58.0069 26.2161 56.9549 25.6455C55.9029 25.0571 55.0648 24.2547 54.4408 23.2383C53.8345 22.2219 53.5314 21.0629 53.5314 19.7613C53.5314 18.4775 53.8256 17.3363 54.414 16.3378C55.0203 15.3214 55.8405 14.519 56.8747 13.9306C57.9089 13.3244 59.059 13.0212 60.3249 13.0212C61.5731 13.0212 62.6697 13.3065 63.6147 13.8771C64.5776 14.4299 65.3265 15.1966 65.8614 16.1773C66.4142 17.1402 66.6906 18.2368 66.6906 19.4671C66.6906 19.6989 66.6727 19.9396 66.6371 20.1892C66.6192 20.421 66.5747 20.6885 66.5033 20.9916L55.6444 21.0184V18.3972L64.8718 18.3705L63.4543 19.4671C63.4186 18.7004 63.276 18.0584 63.0263 17.5413C62.7945 17.0243 62.4468 16.632 61.9832 16.3645C61.5374 16.0792 60.9847 15.9366 60.3249 15.9366C59.6295 15.9366 59.0233 16.0971 58.5062 16.418C57.9891 16.7211 57.5879 17.158 57.3026 17.7286C57.0352 18.2813 56.9014 18.9411 56.9014 19.7078C56.9014 20.4924 57.0441 21.1788 57.3294 21.7673C57.6325 22.3378 58.0604 22.7836 58.6132 23.1046C59.1659 23.4077 59.8079 23.5593 60.5389 23.5593C61.1987 23.5593 61.796 23.4523 62.3309 23.2383C62.8658 23.0065 63.3294 22.6677 63.7217 22.2219L65.7812 24.2814C65.1571 25.0125 64.3904 25.5652 63.481 25.9397C62.5895 26.3141 61.6177 26.5013 60.5657 26.5013ZM74.9556 26.5013C73.6361 26.5013 72.4503 26.2071 71.3983 25.6187C70.3463 25.0303 69.5172 24.2279 68.9109 23.2116C68.3047 22.1952 68.0015 21.054 68.0015 19.788C68.0015 18.5042 68.3047 17.3541 68.9109 16.3378C69.5172 15.3214 70.3463 14.519 71.3983 13.9306C72.4682 13.3244 73.6539 13.0212 74.9556 13.0212C75.9719 13.0212 76.9081 13.2085 77.7639 13.5829C78.6198 13.9573 79.3598 14.4923 79.9839 15.1877L77.7372 17.4611C77.3984 17.0867 76.9883 16.8014 76.5069 16.6052C76.0433 16.4091 75.5262 16.311 74.9556 16.311C74.3137 16.311 73.7342 16.4626 73.2171 16.7657C72.7178 17.051 72.3166 17.4522 72.0135 17.9693C71.7282 18.4686 71.5855 19.0659 71.5855 19.7613C71.5855 20.4389 71.7282 21.0451 72.0135 21.58C72.3166 22.0971 72.7178 22.5072 73.2171 22.8104C73.7342 23.0957 74.3137 23.2383 74.9556 23.2383C75.544 23.2383 76.07 23.1402 76.5336 22.9441C77.015 22.7301 77.4251 22.427 77.7639 22.0347L80.0374 24.3082C79.3776 25.0214 78.6198 25.5652 77.7639 25.9397C76.9081 26.3141 75.9719 26.5013 74.9556 26.5013ZM90.7141 26.2339V18.8252C90.7141 18.0584 90.4734 17.4344 89.992 16.9529C89.5106 16.4715 88.8865 16.2308 88.1198 16.2308C87.6205 16.2308 87.1747 16.3378 86.7824 16.5517C86.3902 16.7657 86.0781 17.0688 85.8463 17.4611C85.6324 17.8534 85.5254 18.3081 85.5254 18.8252L84.1613 18.1298C84.1613 17.1134 84.3753 16.2308 84.8032 15.4819C85.2312 14.7152 85.8196 14.1178 86.5685 13.6899C87.3352 13.2619 88.2089 13.048 89.1896 13.048C90.1703 13.048 91.0351 13.2619 91.784 13.6899C92.5507 14.1178 93.1481 14.7062 93.576 15.4551C94.0039 16.204 94.2179 17.0688 94.2179 18.0495V26.2339H90.7141ZM82.0216 26.2339V6.89633H85.5254V26.2339H82.0216ZM103.067 26.2339V7.83245H105.019V26.2339H103.067ZM104.35 17.9158V16.1238H114.22V17.9158H104.35ZM104.35 9.62445V7.83245H114.674V9.62445H104.35ZM117.787 26.2339V13.6631H119.659V26.2339H117.787ZM119.659 18.9054L118.884 18.5577C118.884 16.9708 119.267 15.7137 120.034 14.7865C120.818 13.8593 121.888 13.3957 123.243 13.3957C123.868 13.3957 124.438 13.5116 124.955 13.7434C125.472 13.9573 125.954 14.3051 126.4 14.7865L125.169 16.0971C124.866 15.7583 124.527 15.5175 124.153 15.3749C123.796 15.2323 123.386 15.1609 122.922 15.1609C121.96 15.1609 121.175 15.4819 120.569 16.1238C119.963 16.7479 119.659 17.6751 119.659 18.9054ZM133.752 26.5013C132.486 26.5013 131.353 26.2161 130.355 25.6455C129.356 25.0749 128.563 24.2903 127.974 23.2918C127.404 22.2933 127.119 21.1699 127.119 19.9218C127.119 18.6914 127.404 17.5859 127.974 16.6052C128.545 15.6067 129.321 14.8221 130.301 14.2516C131.282 13.681 132.379 13.3957 133.591 13.3957C134.732 13.3957 135.74 13.6542 136.613 14.1713C137.505 14.6884 138.2 15.4106 138.7 16.3378C139.217 17.2471 139.475 18.2992 139.475 19.4938C139.475 19.6365 139.466 19.8059 139.449 20.002C139.431 20.1803 139.395 20.3943 139.342 20.6439H128.456V19.0391H138.325L137.657 19.6276C137.674 18.7004 137.514 17.9069 137.175 17.2471C136.854 16.5696 136.382 16.0525 135.758 15.6959C135.151 15.3214 134.411 15.1342 133.538 15.1342C132.628 15.1342 131.835 15.3303 131.157 15.7226C130.48 16.1149 129.945 16.6676 129.552 17.3809C129.178 18.0763 128.991 18.9054 128.991 19.8683C128.991 20.8311 129.187 21.6781 129.579 22.4092C129.989 23.1402 130.551 23.7108 131.264 24.1209C131.995 24.531 132.833 24.7361 133.778 24.7361C134.545 24.7361 135.249 24.6024 135.891 24.3349C136.533 24.0496 137.077 23.6306 137.523 23.0778L138.726 24.3082C138.138 25.0036 137.407 25.5474 136.533 25.9397C135.677 26.3141 134.75 26.5013 133.752 26.5013ZM146.191 26.5013C145.513 26.5013 144.863 26.4122 144.238 26.2339C143.614 26.0377 143.044 25.7703 142.527 25.4315C142.027 25.0927 141.591 24.6915 141.216 24.2279L142.42 22.9976C142.919 23.6038 143.481 24.0585 144.105 24.3616C144.747 24.6469 145.46 24.7896 146.244 24.7896C147.082 24.7896 147.733 24.6291 148.197 24.3082C148.678 23.9872 148.919 23.5414 148.919 22.9708C148.919 22.4359 148.75 22.0169 148.411 21.7138C148.072 21.4106 147.635 21.1699 147.1 20.9916C146.583 20.8133 146.03 20.6439 145.442 20.4834C144.854 20.3051 144.292 20.0912 143.757 19.8415C143.222 19.5741 142.785 19.2085 142.446 18.7449C142.125 18.2813 141.965 17.6751 141.965 16.9262C141.965 16.213 142.134 15.5978 142.473 15.0807C142.83 14.5458 143.329 14.1357 143.971 13.8504C144.631 13.5472 145.406 13.3957 146.298 13.3957C147.243 13.3957 148.099 13.5651 148.866 13.9039C149.632 14.2426 150.247 14.7419 150.711 15.4016L149.507 16.6052C149.133 16.1238 148.66 15.7583 148.09 15.5086C147.537 15.2412 146.913 15.1074 146.218 15.1074C145.415 15.1074 144.8 15.2679 144.372 15.5889C143.962 15.892 143.757 16.2932 143.757 16.7925C143.757 17.2739 143.926 17.6572 144.265 17.9425C144.604 18.21 145.032 18.4329 145.549 18.6112C146.084 18.7717 146.646 18.9411 147.234 19.1194C147.822 19.2799 148.384 19.5027 148.919 19.788C149.454 20.0555 149.882 20.4299 150.203 20.9114C150.542 21.375 150.711 22.008 150.711 22.8104C150.711 23.9337 150.301 24.8342 149.481 25.5117C148.678 26.1715 147.582 26.5013 146.191 26.5013ZM159.399 26.5013C158.169 26.5013 157.054 26.2161 156.056 25.6455C155.075 25.0571 154.29 24.2636 153.702 23.2651C153.131 22.2665 152.846 21.1521 152.846 19.9218C152.846 18.6914 153.131 17.5859 153.702 16.6052C154.29 15.6067 155.075 14.8221 156.056 14.2516C157.054 13.681 158.169 13.3957 159.399 13.3957C160.344 13.3957 161.227 13.574 162.047 13.9306C162.867 14.2872 163.562 14.7865 164.133 15.4284L162.903 16.6855C162.475 16.204 161.958 15.8385 161.351 15.5889C160.745 15.3214 160.094 15.1877 159.399 15.1877C158.507 15.1877 157.714 15.3927 157.019 15.8028C156.323 16.213 155.779 16.7746 155.387 17.4879C154.995 18.1833 154.799 18.9946 154.799 19.9218C154.799 20.8311 154.995 21.6514 155.387 22.3824C155.779 23.0957 156.323 23.6573 157.019 24.0674C157.714 24.4775 158.507 24.6826 159.399 24.6826C160.112 24.6826 160.772 24.5578 161.378 24.3082C161.984 24.0407 162.502 23.6662 162.929 23.1848L164.187 24.4419C163.598 25.1016 162.885 25.6098 162.047 25.9664C161.227 26.323 160.344 26.5013 159.399 26.5013ZM172.275 26.5013C171.063 26.5013 169.957 26.2071 168.959 25.6187C167.978 25.0303 167.193 24.2368 166.605 23.2383C166.034 22.2398 165.749 21.1253 165.749 19.895C165.749 18.6825 166.034 17.5859 166.605 16.6052C167.193 15.6245 167.978 14.8489 168.959 14.2783C169.957 13.6899 171.063 13.3957 172.275 13.3957C173.506 13.3957 174.611 13.681 175.592 14.2516C176.572 14.8221 177.348 15.6067 177.919 16.6052C178.507 17.5859 178.801 18.6825 178.801 19.895C178.801 21.1432 178.507 22.2665 177.919 23.2651C177.348 24.2457 176.572 25.0303 175.592 25.6187C174.611 26.2071 173.506 26.5013 172.275 26.5013ZM172.275 24.6826C173.167 24.6826 173.951 24.4775 174.629 24.0674C175.324 23.6573 175.868 23.0867 176.26 22.3557C176.671 21.6246 176.876 20.8044 176.876 19.895C176.876 18.9856 176.671 18.1833 176.26 17.4879C175.868 16.7746 175.324 16.213 174.629 15.8028C173.951 15.3927 173.167 15.1877 172.275 15.1877C171.402 15.1877 170.617 15.3927 169.922 15.8028C169.226 16.213 168.682 16.7746 168.29 17.4879C167.898 18.1833 167.702 18.9856 167.702 19.895C167.702 20.8222 167.898 21.6514 168.29 22.3824C168.682 23.0957 169.226 23.6573 169.922 24.0674C170.617 24.4775 171.402 24.6826 172.275 24.6826Z" fill="#21282B"/>
<path d="M0.722168 19.3296C0.866546 19.3892 0.841558 19.5467 0.944289 19.6017C1.27192 19.7805 1.56761 20.0328 1.8772 20.2483C2.06044 20.3752 2.26035 20.473 2.4436 20.6014C2.78789 20.8429 3.08498 21.1058 3.49312 21.2128L3.4723 21.2067L3.55143 21.2434L3.47924 21.2847L3.47785 21.3321C3.45564 21.3443 3.45009 21.3474 3.42371 21.3581C2.97114 21.5339 2.4797 21.4299 2.06461 21.1899C1.42046 20.8185 0.934571 20.0863 0.722168 19.3296Z" fill="#21282B"/>
<path d="M1.53855 14.5953C2.10496 13.669 3.09617 13.0178 4.08044 12.7992C4.85231 12.628 5.62696 12.7304 6.28638 13.2242C6.70841 13.5406 7.03881 14.016 7.13321 14.5755C7.21651 15.0707 7.09712 15.6776 6.83613 16.0919C6.52655 16.5825 6.06426 16.9311 5.6686 17.33C5.46175 17.5379 5.2785 17.7687 5.0786 17.9843C4.88285 18.2793 4.68294 18.5728 4.58021 18.9259C4.36087 19.681 4.52607 20.6166 3.83611 21.1302C3.73616 21.2051 3.59733 21.2998 3.47933 21.3304L3.48072 21.283L3.55291 21.2418L3.47378 21.2051L3.4946 21.2112C3.08784 21.1027 2.78937 20.8397 2.44508 20.5997C2.26183 20.4713 2.06192 20.3735 1.87867 20.2466C1.56909 20.0311 1.27339 19.7804 0.945765 19.6C0.843034 19.5435 0.868023 19.3876 0.723644 19.3279C0.539007 18.9366 0.502912 18.3573 0.500135 17.9247C0.491806 16.8974 0.868023 15.3413 1.53855 14.5953Z" fill="#21282B"/>
<path d="M4.95643 13.596C5.16051 13.5823 5.36458 13.593 5.56171 13.6618C5.84908 13.7627 6.08231 13.9675 6.21974 14.264C6.33497 14.5132 6.38078 14.8235 6.29471 15.0925C6.20447 15.3753 6.00734 15.5389 5.77273 15.6673C5.59781 15.7162 5.46592 15.7285 5.29933 15.6398C4.95088 15.4533 4.56078 14.9336 4.44278 14.5285C4.38725 14.3359 4.38586 14.1249 4.4761 13.9446C4.5816 13.7367 4.75791 13.6572 4.95643 13.596Z" fill="#21282B"/>
<path d="M30.4833 8.47754C32.0368 10.8408 32.8059 13.8827 32.3866 16.781C32.3408 17.102 32.2867 17.4413 32.1812 17.7455C32.152 17.6064 32.2173 17.4322 32.2339 17.2885L32.1825 17.29L32.2089 17.3359L32.1728 17.2334C32.0201 17.1861 30.8665 17.0638 30.7152 17.0836C30.6374 17.0943 30.5541 17.1861 30.4764 17.2166C30.3723 17.2564 30.2487 17.235 30.1404 17.2671C30.0335 17.2992 29.7295 17.4857 29.6268 17.5483C29.8794 17.0806 30.1252 16.5853 30.3084 16.0793C30.289 16.0533 30.3001 16.0732 30.2917 16.0121C30.3709 15.8302 30.4209 15.6315 30.5055 15.4526C30.543 15.3731 30.8026 14.5951 30.8082 14.5171C30.8123 14.4529 30.8026 14.4345 30.7679 14.3841C30.7207 14.3933 30.6985 14.4116 30.668 14.4483C30.5833 14.5492 30.4417 14.7647 30.4542 14.9069C30.4556 14.9191 30.4583 14.9298 30.4611 14.942C30.4222 14.9971 30.4222 15.0001 30.3625 15.0185C30.3334 15.0047 30.3278 15.0032 30.3001 14.9772C30.1737 14.858 30.0877 14.1625 30.121 13.9943C30.1252 13.9744 30.1321 13.9561 30.1376 13.9377L30.1002 13.9301L30.096 13.8827L29.9752 13.9714C30.7735 12.5009 31.04 11.3269 30.7985 9.62247C30.6957 9.24032 30.5819 8.86122 30.4833 8.47754Z" fill="#EE342A"/>
<path d="M30.8 9.62232L30.825 9.61621C30.9194 9.80729 30.9527 10.0412 30.9971 10.2521C31.2956 11.6539 31.1651 13.3109 30.7958 14.6912C30.682 15.1146 30.5251 15.7169 30.3085 16.0777C30.2891 16.0517 30.3002 16.0715 30.2919 16.0104C30.371 15.8285 30.421 15.6298 30.5057 15.4509C30.5431 15.3714 30.8027 14.5934 30.8083 14.5154C30.8125 14.4512 30.8027 14.4329 30.768 14.3824C30.7208 14.3916 30.6986 14.4099 30.6681 14.4466C30.5834 14.5475 30.4418 14.7631 30.4543 14.9052C30.4557 14.9174 30.4585 14.9281 30.4612 14.9404C30.4224 14.9954 30.4224 14.9985 30.3627 15.0168C30.3335 15.003 30.328 15.0015 30.3002 14.9755C30.1739 14.8563 30.0878 14.1608 30.1211 13.9926C30.1253 13.9728 30.1322 13.9544 30.1378 13.9361L30.1003 13.9284L30.0961 13.881L29.9753 13.9697C30.775 12.4992 31.0415 11.3252 30.8 9.62232Z" fill="#EE342A"/>
<path d="M29.9768 13.97L30.0976 13.8813L30.1018 13.9287L30.1393 13.9364C30.1337 13.9547 30.1254 13.9731 30.1226 13.9929C30.0893 14.1626 30.1754 14.8566 30.3017 14.9758C30.3295 15.0018 30.335 15.0018 30.3642 15.0171C30.4239 14.9988 30.4253 14.9957 30.4627 14.9407C30.46 14.93 30.4572 14.9177 30.4558 14.9055C30.4419 14.7634 30.5835 14.5478 30.6696 14.4469C30.7015 14.4102 30.7237 14.3919 30.7695 14.3827C30.8042 14.4332 30.814 14.4515 30.8098 14.5157C30.8042 14.5937 30.5446 15.3717 30.5072 15.4512C30.4225 15.6301 30.3739 15.8288 30.2934 16.0107C30.3031 16.0719 30.2906 16.052 30.31 16.078C30.1268 16.5839 29.8811 17.0792 29.6284 17.547C29.7311 17.4828 30.0352 17.2963 30.142 17.2657C30.2503 17.2336 30.3739 17.2565 30.478 17.2153C30.5544 17.1847 30.639 17.093 30.7168 17.0823C30.8681 17.0624 32.0204 17.1862 32.1745 17.2321L32.2105 17.3345L32.1842 17.2886L32.2355 17.2871C32.2189 17.4308 32.1536 17.6051 32.1828 17.7442C31.9454 18.8723 31.1999 20.4513 30.6432 21.4388C30.5641 21.5779 30.4711 21.7812 30.3628 21.8943C30.2406 22.145 30.0532 22.3957 29.8908 22.6174C29.1578 23.614 28.2485 24.3676 27.1601 24.8308C26.5465 25.0907 25.8704 25.2955 25.3179 25.6945C24.9097 25.9895 24.6279 26.4053 24.2933 26.7859C24.6154 25.8565 24.8 24.9286 24.8875 23.9427C24.968 23.0454 24.9958 22.1343 25.1721 21.2523C25.5122 19.5433 26.3896 18.1355 27.5044 16.9248C28.043 16.3409 28.615 15.7875 29.1245 15.1715C29.4354 14.7955 29.7047 14.3843 29.9768 13.97Z" fill="#EE342A"/>
<path d="M29.6282 17.5469C29.731 17.4827 30.035 17.2962 30.1419 17.2657C30.2502 17.2336 30.3737 17.2565 30.4778 17.2152C30.5542 17.1846 30.6389 17.0929 30.7166 17.0822C30.8679 17.0623 32.0202 17.1862 32.1743 17.232L32.2104 17.3344L32.184 17.2886L32.2354 17.2871C32.2187 17.4307 32.1535 17.605 32.1826 17.7441C31.9452 18.8722 31.1997 20.4513 30.643 21.4388C30.5639 21.5779 30.4709 21.7812 30.3626 21.8943L30.3154 21.879C30.0711 22.3116 29.7573 22.7029 29.4519 23.0836C29.1271 23.1233 28.6065 23.1264 28.2844 23.0591C27.8304 22.9643 27.1224 22.6341 26.7157 22.3957L26.724 22.3972L26.6588 22.3437C26.8031 21.772 28.5759 19.2437 28.9869 18.6047C29.2076 18.2608 29.3964 17.8817 29.6282 17.5469Z" fill="#EE342A"/>
<path d="M23.4992 26.5616C23.6338 26.5081 23.7574 26.1779 23.8185 26.0358C23.9503 25.7285 24.0559 25.409 24.1863 25.1018L24.1669 25.0804L24.185 25.1033L24.2197 25.0498C24.2571 25.4442 23.9462 26.3017 23.7949 26.6824C23.7574 26.7756 23.6546 26.9361 23.6435 27.0263C23.6408 27.0477 23.6588 27.066 23.6671 27.0859C23.2215 28.2232 21.6347 30.1309 20.5894 30.6613L20.4755 30.6629C20.4797 30.6308 20.4839 30.6124 20.4825 30.5788C20.4686 30.2257 19.1789 28.772 18.9193 28.4678C19.1609 28.5228 19.526 28.6482 19.7592 28.5457C20.3909 28.5702 21.0336 28.4984 21.6236 28.24C22.2067 28.0245 22.7453 27.5583 23.1465 27.0538C23.2618 26.9086 23.3506 26.7175 23.4742 26.5861C23.4839 26.5754 23.4922 26.5692 23.4992 26.5616Z" fill="#21282B"/>
<path d="M23.4409 18.7153C23.5297 18.3255 23.6533 17.9327 23.7907 17.5597C24.1822 16.4881 24.8722 15.2637 25.8814 14.7975C26.781 14.3817 27.7833 14.5285 28.6649 14.9213C28.1734 15.5282 27.614 16.051 27.085 16.615C26.4395 17.3044 25.8328 18.1283 25.4094 19.0042C25.061 19.7242 24.7847 20.539 24.6459 21.3415C24.3405 23.1086 24.564 25.0407 23.849 26.7054C23.799 26.8216 23.7449 26.9912 23.6685 27.083C23.6602 27.0631 23.6422 27.0447 23.6449 27.0233C23.6547 26.9332 23.7588 26.7727 23.7963 26.6794C23.9476 26.3003 24.2586 25.4428 24.2211 25.0468L24.1864 25.1003L24.1683 25.0774L24.1878 25.0988C24.0573 25.4061 23.9518 25.7256 23.8199 26.0328C23.7588 26.175 23.6352 26.5051 23.5006 26.5586C23.8143 25.9747 24.1197 25.322 24.2405 24.6509C24.1447 24.9291 24.0462 25.2012 23.9351 25.4718C23.8296 25.5024 23.5894 26.1169 23.5131 26.2514C23.0785 27.0218 22.1637 27.7326 21.3668 27.9344C21.3529 27.8962 21.4362 27.8213 21.446 27.7449C21.4584 27.6394 21.4307 27.5079 21.4099 27.404C21.2849 26.7757 20.8893 26.7329 20.5741 26.3018C20.5658 26.2911 20.5575 26.2789 20.5505 26.2667C20.4506 26.126 20.4145 25.9625 20.3701 25.7943C20.4839 25.7317 20.595 25.6629 20.7018 25.588C20.8087 25.5131 20.9129 25.4321 21.0128 25.3465C21.1128 25.2609 21.2086 25.1691 21.3002 25.0713C21.3918 24.975 21.4793 24.8726 21.5612 24.7656C21.6764 24.6188 21.7972 24.4644 21.893 24.3009C22.0582 24.0166 22.6482 22.8349 22.626 22.5032L22.5635 22.5048C22.5788 22.3733 22.6204 22.2021 22.694 22.0951C22.9106 21.6029 22.9814 20.9379 23.0855 20.4075C23.1896 19.8434 23.3104 19.2779 23.4409 18.7153Z" fill="#21282B"/>
<path d="M21.6694 15.0403C21.6777 14.571 21.7513 14.0757 21.7929 13.6065C21.9623 11.6422 22.2136 9.36608 23.5074 7.8711C23.5491 7.82218 23.5935 7.77479 23.6365 7.72894C23.681 7.68308 23.7268 7.63722 23.7726 7.59442C23.8184 7.55009 23.8656 7.50882 23.9142 7.46754C23.9628 7.42627 24.0114 7.38653 24.0613 7.34831C24.1113 7.3101 24.1627 7.27188 24.214 7.23672C24.2654 7.20156 24.3182 7.16641 24.3709 7.13431C24.4237 7.10068 24.4778 7.0701 24.532 7.03953C24.5861 7.00896 24.6416 6.98144 24.6972 6.95393C24.7527 6.92641 24.8096 6.90196 24.8665 6.8775C24.9234 6.85304 24.9804 6.83164 25.0387 6.81024C25.097 6.78884 25.1553 6.7705 25.2136 6.75215C25.2719 6.73381 25.3316 6.71852 25.3913 6.70324C25.451 6.68795 25.5107 6.67572 25.5704 6.66502C25.6301 6.65432 25.6911 6.64362 25.7508 6.63598C25.8119 6.62833 25.8716 6.62069 25.9327 6.61611C25.9938 6.61152 26.0549 6.60846 26.116 6.60693C26.152 6.60693 26.1881 6.60693 26.2242 6.60693C26.2603 6.60693 26.2964 6.60846 26.3325 6.60999C26.3686 6.61152 26.4047 6.61305 26.4408 6.61611C26.4769 6.61916 26.513 6.62222 26.5491 6.62528C26.5852 6.62833 26.6213 6.63292 26.6574 6.63751C26.6935 6.64209 26.7296 6.64668 26.7657 6.65279C26.8017 6.65891 26.8378 6.66349 26.8725 6.67114C26.9086 6.67725 26.9433 6.68489 26.9794 6.69101C27.0155 6.69865 27.0502 6.70629 27.0863 6.71394C27.121 6.72158 27.1571 6.73075 27.1918 6.73992C27.2266 6.74909 27.2626 6.75827 27.2974 6.76897C27.3321 6.77967 27.3668 6.79037 27.4015 6.80107C27.4362 6.81177 27.4709 6.824 27.5056 6.83623C27.5403 6.84845 27.575 6.86068 27.6083 6.87444C27.643 6.88667 27.6763 6.90043 27.7111 6.91419C27.7444 6.92794 27.7791 6.9417 27.8124 6.95699C27.8457 6.97227 27.879 6.98756 27.9123 7.00284C27.9457 7.01813 27.979 7.03495 28.0109 7.05176C28.0442 7.06858 28.0762 7.08539 28.1095 7.1022C28.1414 7.11902 28.1747 7.13736 28.2067 7.15571C28.2386 7.17405 28.2705 7.19239 28.3025 7.21226C28.3344 7.23214 28.3649 7.25048 28.3969 7.27188C28.4288 7.29175 28.4593 7.31315 28.4899 7.33303C28.5204 7.35443 28.5509 7.37583 28.5815 7.39723C28.612 7.41863 28.6426 7.44156 28.6717 7.46296C28.7009 7.48589 28.7314 7.50882 28.7606 7.53174C28.7897 7.55467 28.8189 7.57913 28.848 7.60359C28.8772 7.62805 28.905 7.65251 28.9341 7.67696C28.9619 7.70142 28.991 7.72741 29.0174 7.75339C29.0452 7.77938 29.0729 7.80537 29.0993 7.83135C29.1271 7.85734 29.1534 7.88486 29.1798 7.91237C29.2062 7.93989 29.2326 7.9674 29.259 7.99492C29.9461 8.73629 30.2599 9.74212 30.2696 10.7862C30.2849 12.4187 29.6935 13.77 28.6634 14.9257C27.7819 14.5328 26.7795 14.386 25.8799 14.8018C24.8707 15.2681 24.1821 16.4925 23.7892 17.564C23.6532 17.937 23.5296 18.3299 23.4394 18.7197C23.3242 18.842 23.2089 19.4656 23.1645 19.6781L23.1437 19.6567L23.1493 19.7438C23.0493 19.5038 22.8105 19.3357 22.6634 19.1293C22.5107 18.9138 22.4246 18.6341 22.3024 18.3971C22.2511 18.2962 22.183 18.2076 22.1414 18.1021C22.0289 17.8117 21.7152 17.6313 21.6999 17.5717C21.6485 17.3592 21.8096 17.0688 21.7402 16.8624C21.7346 16.8471 21.7277 16.8318 21.7221 16.8165C21.7443 16.4894 21.8498 15.3537 21.7527 15.0984C21.736 15.0464 21.7082 15.0525 21.6694 15.0403Z" fill="#21282B"/>
<path d="M27.6862 8.07771C27.9777 8.04103 28.2915 8.11287 28.5413 8.28255C28.8551 8.49502 29.0647 8.86189 29.1438 9.25475C29.2285 9.67206 29.1785 10.1123 28.962 10.4731C28.7218 10.8735 28.3803 11.0616 27.9666 11.1502C27.6431 11.164 27.3433 11.1028 27.0698 10.9026C27.049 10.8873 27.0295 10.872 27.0087 10.8552C26.9893 10.8384 26.9698 10.8216 26.9504 10.8048C26.931 10.7879 26.9129 10.7696 26.8949 10.7513C26.8768 10.7329 26.8588 10.713 26.8421 10.6947C26.8241 10.6748 26.8074 10.655 26.7921 10.6351C26.7755 10.6152 26.7602 10.5938 26.7449 10.5724C26.7297 10.551 26.7144 10.5296 26.7005 10.5067C26.6866 10.4838 26.6728 10.4624 26.6589 10.4394C26.645 10.4165 26.6325 10.3936 26.62 10.3691C26.6075 10.3462 26.5964 10.3217 26.5839 10.2973C26.5728 10.2728 26.5617 10.2483 26.552 10.2239C26.5423 10.1994 26.5325 10.1734 26.5228 10.149C26.5145 10.123 26.5048 10.0985 26.4978 10.0726C26.4895 10.0466 26.4826 10.0206 26.4756 9.99459C26.4687 9.96861 26.4631 9.94109 26.4576 9.91511C26.452 9.88912 26.4479 9.86161 26.4437 9.83409C26.3784 9.42901 26.459 9.01017 26.6825 8.67846C26.9324 8.29783 27.2822 8.13733 27.6862 8.07771Z" fill="#21282B"/>
<path d="M21.6696 15.04C21.7084 15.0523 21.7362 15.0462 21.7529 15.092C21.85 15.3473 21.7445 16.4831 21.7223 16.8102C21.7279 16.8255 21.7348 16.8407 21.7404 16.856C21.8098 17.0639 21.6487 17.3544 21.7001 17.5653C21.7154 17.6265 22.0291 17.8068 22.1416 18.0957C22.1832 18.2012 22.2512 18.2914 22.3026 18.3908C22.4248 18.6277 22.5108 18.9074 22.6635 19.123C22.8107 19.3309 23.0481 19.499 23.1494 19.7375L23.1439 19.6503L23.1647 19.6717C23.2091 19.4593 23.3244 18.8356 23.4396 18.7133C23.3077 19.2758 23.1883 19.8414 23.08 20.4101C22.9773 20.942 22.9051 21.607 22.6885 22.0976C22.6163 22.2047 22.5733 22.3759 22.558 22.5073C22.4137 22.8681 22.3082 23.2472 22.1652 23.6094C21.8514 24.4028 21.285 25.1396 20.6117 25.589C17.9837 27.3408 14.7838 24.3004 12.5709 22.9751C12.4016 22.8711 12.2294 22.7733 12.0531 22.6831C11.8782 22.5914 11.6991 22.5073 11.5186 22.4294C11.3382 22.3514 11.1549 22.2811 10.9703 22.2169C10.7856 22.1527 10.5982 22.0961 10.4108 22.0457C10.0471 21.9692 9.68476 21.8928 9.3141 21.8836C8.52001 21.7675 7.55101 21.9524 6.90548 22.4997C6.3585 22.9628 6.15998 23.5422 6.03088 24.2652C6.02255 24.3141 6.02532 24.2973 6.00311 24.3524C5.92953 24.1934 5.87956 24.0145 5.83097 23.8449C5.47419 22.6036 5.49084 21.1285 6.04892 19.9622C6.44735 19.1306 7.09428 18.4259 7.92029 18.1462C9.76944 17.5638 11.899 18.6017 13.6357 19.2835C14.2396 19.5204 14.8574 19.7207 15.4599 19.9561C15.8458 20.0355 16.2207 20.1563 16.6108 20.222C17.7033 20.4055 18.7709 20.329 19.6857 19.5831C20.9976 18.5192 21.4447 16.7215 21.6696 15.04Z" fill="#21282B"/>
<path d="M21.7235 16.8105C21.7291 16.8258 21.736 16.8411 21.7416 16.8564C21.811 17.0643 21.6499 17.3547 21.7013 17.5657C21.7166 17.6268 22.0303 17.8072 22.1428 18.0961C22.1844 18.2016 22.2524 18.2918 22.3038 18.3911C22.426 18.6281 22.512 18.9078 22.6647 19.1233C22.8119 19.3312 23.0493 19.4994 23.1506 19.7378L23.1451 19.6507L23.1659 19.6721C23.2103 19.4596 23.3256 18.836 23.4408 18.7137C23.3089 19.2762 23.1895 19.8418 23.0812 20.4104C22.9785 20.9424 22.9063 21.6073 22.6897 22.098C22.6939 21.9452 22.7564 21.7678 22.7925 21.618C22.8966 21.1778 23.0854 20.5037 23.0923 20.0589C22.9743 19.8403 22.73 19.7073 22.587 19.5024C22.2163 18.9766 22.1428 18.3376 21.6208 17.9249C21.3903 18.8726 21.1002 19.8372 20.3616 20.4593C20.4796 20.2209 20.7934 19.9442 20.953 19.6767C21.4806 18.7916 21.5625 17.8225 21.7235 16.8105Z" fill="#21282B"/>
<path d="M7.92424 18.1465C8.24632 18.3437 8.84743 18.1725 9.22781 18.3651C9.21254 18.3697 9.19866 18.3788 9.18339 18.3804C9.07927 18.3956 8.89879 18.3253 8.78357 18.307C7.94506 18.1801 7.68685 18.1572 7.0191 18.7503C6.47213 19.2364 6.42215 19.6033 6.3569 20.3385C6.33191 20.6137 6.34857 20.9958 6.52488 21.2098C6.77477 21.511 7.1732 21.7586 7.37033 22.0964C7.55774 22.1209 7.83262 21.9206 8.02836 21.8824C8.46844 21.7953 10.1066 21.7647 10.4092 22.0231L10.4134 22.046C10.0497 21.9695 9.68732 21.8931 9.31666 21.8839C8.52258 21.7678 7.55358 21.9527 6.90804 22.5C6.36107 22.9631 6.16255 23.5425 6.03344 24.2655C6.02511 24.3144 6.02789 24.2976 6.00567 24.3527C5.9321 24.1937 5.88212 24.0148 5.83353 23.8452C5.47675 22.6039 5.49341 21.1288 6.05149 19.9625C6.44991 19.1309 7.09823 18.4262 7.92424 18.1465Z" fill="#21282B"/>
<path d="M7.92426 18.1465C9.77341 17.5641 11.903 18.602 13.6397 19.2838C14.2436 19.5207 14.8614 19.721 15.4639 19.9564C15.4528 19.9594 15.4416 19.961 15.4292 19.964C15.2889 19.9885 15.0043 19.8662 14.8683 19.8035L14.8627 19.8295L14.8822 19.8647C14.9821 20.0481 15.2306 20.8063 15.2848 20.8705C15.3125 20.9041 15.3639 20.9316 15.4014 20.95C14.9474 20.8644 14.4657 20.6198 14.0395 20.4303C12.5749 19.7775 10.7382 18.6601 9.22505 18.3666C8.84744 18.174 8.24633 18.3452 7.92426 18.1465Z" fill="#21282B"/>
<path d="M21.6694 15.04C21.7082 15.0523 21.736 15.0462 21.7527 15.092C21.8498 15.3473 21.7443 16.4831 21.7221 16.8102C21.5611 17.8221 21.4792 18.7913 20.953 19.6779C20.7934 19.9454 20.4796 20.222 20.3616 20.4605C20.1173 20.6485 19.8757 20.8381 19.6078 20.9818C18.6943 21.4724 17.6004 21.4633 16.6217 21.2707C16.2371 21.1958 15.7596 21.1178 15.4042 20.9466C15.3667 20.9283 15.3153 20.9007 15.2876 20.8671C15.2334 20.8029 14.9849 20.0447 14.885 19.8613L14.8655 19.8261L14.8711 19.8001C15.0071 19.8643 15.2917 19.9851 15.4319 19.9606C15.4431 19.9591 15.4542 19.9561 15.4667 19.953C15.8526 20.0325 16.2274 20.1533 16.6175 20.219C17.7101 20.4024 18.7776 20.326 19.6925 19.58C20.9975 18.5192 21.4445 16.7215 21.6694 15.04Z" fill="#21282B"/>
<path d="M6.00702 24.3525C6.02923 24.2975 6.02507 24.3143 6.03478 24.2654C6.16389 23.5423 6.36241 22.963 6.90938 22.4998C7.55492 21.9526 8.52392 21.7676 9.318 21.8838C9.68867 21.8945 10.051 21.9694 10.4147 22.0458C10.6035 22.0963 10.7896 22.1528 10.9742 22.217C11.1588 22.2812 11.3421 22.3515 11.5226 22.4295C11.703 22.5074 11.8807 22.5915 12.057 22.6832C12.2319 22.775 12.4055 22.8713 12.5748 22.9752C14.7877 24.3005 17.9877 27.3409 20.6156 25.5891C21.2889 25.1397 21.8553 24.4029 22.1691 23.6096C22.3121 23.2473 22.4176 22.8697 22.5619 22.5074L22.6244 22.5059C22.6466 22.8392 22.0566 24.0208 21.8914 24.3036C21.7956 24.4671 21.6749 24.6215 21.5596 24.7683C21.4777 24.8753 21.3903 24.9762 21.2986 25.074C21.207 25.1703 21.1112 25.262 21.0113 25.3491C20.9113 25.4347 20.8072 25.5158 20.7003 25.5907C20.5934 25.6656 20.4823 25.7344 20.3685 25.797C20.4129 25.9652 20.4476 26.1287 20.549 26.2694C20.5573 26.2801 20.5642 26.2923 20.5726 26.3045C20.8891 26.7356 21.2834 26.7799 21.4083 27.4067C21.4291 27.5106 21.4555 27.6421 21.4444 27.7475C21.4361 27.824 21.3528 27.8989 21.3653 27.9371C22.1635 27.7353 23.077 27.0245 23.5115 26.2541C23.5879 26.1196 23.8266 25.5066 23.9335 25.4745C24.0446 25.2039 24.1432 24.9303 24.239 24.6536C24.1182 25.3247 23.8128 25.9774 23.499 26.5613C23.4907 26.569 23.4824 26.5751 23.4754 26.5827C23.3519 26.7142 23.263 26.9053 23.1478 27.0505C22.7466 27.5549 22.2079 28.0212 21.6249 28.2367C21.0349 28.4966 20.3907 28.5669 19.7605 28.5424C19.5272 28.6433 19.1621 28.518 18.9206 28.4645C19.1802 28.7702 20.4698 30.2224 20.4837 30.5755C20.4851 30.6091 20.481 30.629 20.4768 30.6595L20.5906 30.658C20.1339 31.1594 18.1348 31.9375 17.4726 32.0277C15.4805 32.5734 13.244 31.9803 11.4795 30.9118C9.56373 29.7546 7.82424 27.9677 6.68449 25.9101C6.41655 25.4302 6.15001 24.8951 6.00702 24.3525Z" fill="#21282B"/>
<path d="M17.4728 32.0293C17.5102 31.8887 18.5612 31.8092 18.7139 31.5294C18.7291 31.0571 17.6949 29.7945 17.3964 29.3833C17.1854 29.0913 16.9952 28.7749 16.7689 28.4967C16.5454 28.223 16.2233 27.98 16.0373 27.6758C15.9915 27.6024 16.047 27.4847 15.9984 27.3884C15.5292 27.1148 15.0044 26.9329 14.5102 26.7296C14.2798 26.6348 14.066 26.5232 13.8272 26.4499L13.8855 26.4346C14.9531 26.8014 15.9582 27.3517 17.0035 27.7798C17.6643 28.0488 18.3612 28.2995 19.054 28.4416C19.2886 28.489 19.526 28.5013 19.7592 28.5441C19.526 28.6449 19.1609 28.5196 18.9193 28.4661C19.1789 28.7718 20.4686 30.224 20.4825 30.5771C20.4839 30.6107 20.4797 30.6306 20.4756 30.6612L20.5894 30.6597C20.1327 31.161 18.135 31.9391 17.4728 32.0293Z" fill="#21282B"/>
<path d="M10.7481 24.8569C11.8296 24.7637 12.8319 25.2008 13.8092 25.6533C16.0415 26.6897 19.0485 28.6846 21.5126 27.9615C21.6057 28.0059 21.6695 27.9692 21.7611 27.9294C22.0457 27.8025 22.483 27.4556 22.7204 27.3959L22.7468 27.425C22.6913 27.4418 22.6954 27.4326 22.6552 27.4861L22.5899 27.5702C22.372 27.853 21.7375 28.0456 21.6265 28.2382C21.0365 28.4981 20.3923 28.5684 19.7621 28.5439C19.5288 28.5011 19.2901 28.4889 19.0568 28.4415C18.3641 28.2993 17.6672 28.0502 17.0064 27.7796C15.9596 27.3516 14.9545 26.8028 13.8884 26.4344C13.1665 26.0355 11.8671 25.9621 11.0924 26.2158C10.5274 26.4008 10.0707 26.7065 9.78607 27.2874L9.69306 27.2553C9.58477 27.2186 9.48759 27.1804 9.3918 27.1116C9.17385 26.9572 9.00309 26.7126 8.96006 26.4283C8.91563 26.1379 9.0017 25.852 9.16274 25.6197C9.53896 25.0786 10.1692 24.9349 10.7481 24.8569Z" fill="#21282B"/>
<path d="M9.31805 21.8838C9.68872 21.8945 10.0511 21.9694 10.4148 22.0458C10.6036 22.0963 10.7896 22.1528 10.9742 22.217C11.1589 22.2812 11.3421 22.3515 11.5226 22.4295C11.7031 22.5075 11.8808 22.5915 12.0571 22.6833C12.232 22.775 12.4055 22.8713 12.5749 22.9752C14.7878 24.3005 17.9877 27.3409 20.6157 25.5891C21.289 25.1397 21.8554 24.4029 22.1691 23.6096C22.3121 23.2473 22.4176 22.8697 22.562 22.5075L22.6245 22.5059C22.6467 22.8392 22.0567 24.0208 21.8915 24.3036C21.7957 24.4671 21.6749 24.6215 21.5597 24.7683C21.4778 24.8753 21.3903 24.9762 21.2987 25.074C21.2071 25.1703 21.1113 25.262 21.0113 25.3492C20.9114 25.4348 20.8072 25.5158 20.7003 25.5907C20.5935 25.6656 20.4824 25.7344 20.3686 25.797C20.413 25.9652 20.4477 26.1287 20.549 26.2694C20.5574 26.2801 20.5643 26.2923 20.5726 26.3045C20.8891 26.7356 21.2834 26.7799 21.4084 27.4067C21.4292 27.5106 21.4556 27.6421 21.4445 27.7476C21.4361 27.824 21.3528 27.8989 21.3653 27.9371C22.1636 27.7353 23.077 27.0245 23.5116 26.2541C23.5879 26.1196 23.8267 25.5066 23.9336 25.4745C24.0447 25.2039 24.1432 24.9303 24.239 24.6536C24.1182 25.3247 23.8128 25.9774 23.4991 26.5613C23.4907 26.569 23.4824 26.5751 23.4755 26.5827C23.3519 26.7142 23.2631 26.9053 23.1478 27.0505C22.7466 27.5549 22.208 28.0212 21.6249 28.2367C21.736 28.0441 22.3704 27.8515 22.5884 27.5687L22.6536 27.4846C22.6953 27.4327 22.6897 27.4403 22.7452 27.4235L22.7189 27.3944C22.4815 27.4541 22.0456 27.8011 21.7596 27.9279C21.6693 27.9677 21.6041 28.0044 21.5111 27.96C19.0469 28.6831 16.04 26.6882 13.8077 25.6518C12.8303 25.1978 11.828 24.7622 10.7466 24.8554L10.7188 24.8508L10.7021 24.8355C10.6438 24.834 10.6702 24.8371 10.623 24.831L10.6244 24.8218L10.6716 24.834L10.7049 24.8141L10.698 24.8371L10.7271 24.8141C11.4296 24.805 12.0251 24.8738 12.6929 25.1336C12.9539 25.236 13.2135 25.3843 13.4856 25.4455C13.5245 25.0816 12.8706 24.3311 12.6554 24.0193L12.6193 24.0177L12.6513 24.0269C12.6429 24.0131 12.636 23.9979 12.6249 23.9841C12.2903 23.5744 12.2112 23.0731 11.9779 22.7704C11.735 22.454 10.6119 22.1238 10.2121 22.0458C9.93027 21.9908 9.60681 22.003 9.33888 21.8914C9.33332 21.8914 9.32638 21.8884 9.31805 21.8838Z" fill="#21282B"/>
<path d="M24.2391 24.6533C24.1184 25.3244 23.813 25.9771 23.4992 26.561C23.4909 26.5687 23.4826 26.5748 23.4756 26.5824C23.3521 26.7139 23.2632 26.905 23.148 27.0502C22.7468 27.5546 22.2081 28.0209 21.6251 28.2364C21.7361 28.0438 22.3706 27.8512 22.5885 27.5684L22.6538 27.4843C22.6954 27.4323 22.6899 27.44 22.7454 27.4232L22.719 27.3941C22.4816 27.4537 22.0457 27.8007 21.7597 27.9276C21.6695 27.9674 21.6042 28.004 21.5112 27.9597C21.614 27.9215 21.7153 27.8787 21.8153 27.8344C22.7898 27.3926 23.5325 26.5442 23.931 25.4742C24.0434 25.2036 24.1434 24.9315 24.2391 24.6533Z" fill="#21282B"/>
<path d="M28.5484 4.87305C28.8788 5.33469 29.094 6.03785 29.2203 6.60191C29.076 6.49032 28.8885 6.37567 28.7622 6.24268C28.7636 6.22587 28.765 6.20906 28.7664 6.19224C28.7733 5.98129 28.2402 5.57621 28.0945 5.41112L28.0709 5.3836C28.1722 5.42793 28.243 5.51048 28.3388 5.56398C28.4068 5.54869 28.4332 5.54564 28.4721 5.47379C28.5373 5.35303 28.572 5.04425 28.5304 4.91738L28.5484 4.87305Z" fill="#EE342A"/>
<path d="M24.2891 3.89206C25.2734 3.67652 26.6575 4.28491 27.4627 4.8719C27.6765 5.02782 27.875 5.20514 28.0707 5.38704L28.0943 5.41456C28.2401 5.57965 28.7732 5.98473 28.7662 6.19568C28.7662 6.21249 28.7635 6.22931 28.7621 6.24612C27.4127 5.27087 26.0231 4.71904 24.4016 5.04004L24.3683 5.00489C24.7639 4.88107 25.2193 4.85203 25.626 4.89941C25.7787 4.91623 25.9814 4.96973 26.1313 4.94833C26.3923 4.91011 26.3049 4.68693 26.4229 4.51267C26.4479 4.47446 26.4631 4.46223 26.4715 4.41178C26.477 4.38121 26.4742 4.37968 26.4534 4.35828C26.3673 4.26809 26.2077 4.22835 26.0952 4.18861C25.4761 3.96849 24.9374 3.89664 24.2891 3.89206Z" fill="#EE342A"/>
<path d="M24.2891 3.89209C24.9374 3.89668 25.4775 3.96852 26.0966 4.18864C26.2091 4.22839 26.3687 4.26813 26.4548 4.35832C26.4756 4.37972 26.4784 4.38125 26.4729 4.41182C26.4645 4.46073 26.4493 4.47449 26.4243 4.51271C26.3063 4.68697 26.3937 4.91015 26.1327 4.94836C25.9828 4.96976 25.7801 4.91779 25.6274 4.89945C25.2206 4.85206 24.7667 4.88263 24.3696 5.00492L24.403 5.04008C22.3664 5.62401 21.1364 7.02269 20.0994 8.97473C19.9814 9.19791 19.8301 9.59688 19.6801 9.77267L19.6635 9.75432C19.6774 9.58618 19.8426 9.32937 19.9175 9.17956C19.8911 9.04658 19.8717 8.87384 19.8037 8.76073C19.7981 8.75002 19.7912 8.74085 19.7842 8.73168C19.6288 8.48405 19.3761 8.34188 19.2345 8.08661L19.2414 8.06062C19.4649 7.19542 20.4048 5.94808 21.0184 5.37943C21.1059 5.29841 21.1961 5.21893 21.2891 5.14402C21.3807 5.06759 21.4751 4.99575 21.5709 4.92543C21.6667 4.85512 21.7653 4.78939 21.8639 4.72518C21.9638 4.66098 22.0638 4.60137 22.1665 4.54481C22.2692 4.48825 22.3733 4.43322 22.4788 4.38277C22.5844 4.33233 22.6912 4.28494 22.7995 4.24214C22.9078 4.19781 23.0161 4.15807 23.1272 4.12138C23.2368 4.0847 23.3479 4.05107 23.4603 4.02202C23.6825 3.96088 23.974 3.89056 24.2017 3.91808C24.2169 3.9196 24.2322 3.92266 24.2461 3.92419L24.2891 3.89209Z" fill="#EE342A"/>
<path d="M19.2345 8.0835C19.3761 8.33877 19.6288 8.48246 19.7842 8.72857C19.7912 8.73927 19.7967 8.74844 19.8037 8.75761C19.8717 8.87226 19.8911 9.04499 19.9175 9.17645C19.8425 9.32626 19.676 9.58307 19.6635 9.75121L19.6801 9.76956C18.6362 12.1848 17.8046 15.19 15.2682 16.1668C13.9258 16.6835 12.4723 16.3594 11.2257 15.6899C9.79159 14.9195 8.52828 13.5712 8.0049 11.8852C7.84664 11.3746 7.69255 10.6302 7.77862 10.0936C8.12985 9.6488 8.27561 9.30944 8.77816 9.01901C8.81426 8.99913 8.85035 8.97926 8.88644 8.96092C8.92254 8.94258 8.96002 8.92423 8.99751 8.90895C9.03499 8.89213 9.07247 8.87685 9.10995 8.86309C9.14744 8.84933 9.18631 8.83557 9.22518 8.82334C9.26405 8.81112 9.30292 8.80042 9.34179 8.78971C9.38066 8.77901 9.41953 8.76984 9.45979 8.7622C9.49866 8.75456 9.53892 8.74691 9.57918 8.74233C9.61944 8.73621 9.65831 8.73163 9.69857 8.72857C9.73883 8.72551 9.77909 8.72246 9.81935 8.72093C9.85961 8.7194 9.89987 8.7194 9.94013 8.72093C9.98039 8.72246 10.0206 8.72398 10.0609 8.72704C10.1012 8.7301 10.1414 8.73469 10.1803 8.73927C10.2206 8.74386 10.2594 8.7515 10.2997 8.75914C10.3386 8.76679 10.3788 8.77596 10.4177 8.78513C10.4566 8.7943 10.4954 8.805 10.5343 8.81723C10.5732 8.82946 10.6107 8.84169 10.6495 8.85545C12.3765 9.47301 12.5126 11.6284 13.2317 13.1509C13.483 13.6843 13.8828 14.2117 14.4256 14.386C14.9337 14.5495 15.4959 14.3814 15.9416 14.0971C17.0341 13.4015 17.6866 11.5825 18.2225 10.3795C18.4085 9.96216 18.7181 9.37517 18.8263 8.93952C18.9679 8.65825 19.0873 8.36323 19.2345 8.0835Z" fill="#EE342A"/>
<path d="M13.4261 1.86959C13.8495 1.57915 14.341 1.35597 14.8047 1.15725C14.9546 1.09458 15.1059 1.03497 15.2586 0.978407C15.4113 0.921848 15.564 0.868346 15.7181 0.819431C15.8722 0.768987 16.0277 0.723128 16.1832 0.678798C16.3387 0.634468 16.4955 0.594725 16.6524 0.556509C16.8093 0.519822 16.9676 0.484664 17.1258 0.454092C17.2841 0.42352 17.4423 0.396005 17.602 0.371547C17.7616 0.347089 17.9213 0.325688 18.0809 0.307345C18.2406 0.289002 18.4002 0.275244 18.5613 0.263015C18.7223 0.252315 18.882 0.243143 19.043 0.238558C19.204 0.233972 19.3637 0.232443 19.5247 0.233972C19.6858 0.2355 19.8454 0.240086 20.0064 0.249258C20.1675 0.256901 20.3271 0.26913 20.4868 0.284416C20.6464 0.299702 20.8061 0.318045 20.9657 0.339446C21.1254 0.360847 21.2836 0.385304 21.4433 0.412819C21.6015 0.440335 21.7598 0.472435 21.9181 0.506065C22.0763 0.541223 22.2332 0.57791 22.3887 0.619182C24.3003 1.10375 26.1772 2.08512 27.5974 3.59692C27.9348 3.95615 28.2679 4.35053 28.5109 4.79688C28.5248 4.82134 28.5373 4.84733 28.5484 4.87331L28.5289 4.91917C28.572 5.04605 28.5359 5.35483 28.4706 5.47559C28.4318 5.54743 28.4054 5.55049 28.3374 5.56578C28.2416 5.51228 28.1708 5.42973 28.0694 5.3854C27.8737 5.2035 27.6752 5.02618 27.4614 4.87026C26.6562 4.28327 25.2721 3.67641 24.2878 3.89042L24.2448 3.91946C24.2295 3.91793 24.2142 3.91487 24.2004 3.91335C23.9727 3.88583 23.6811 3.95615 23.459 4.01729C23.3466 4.04633 23.2369 4.07996 23.1258 4.11665C23.0162 4.15334 22.9065 4.19308 22.7982 4.23741C22.6899 4.28174 22.583 4.3276 22.4775 4.37804C22.372 4.42849 22.2679 4.48199 22.1652 4.54008C22.0624 4.59664 21.9611 4.65778 21.8625 4.72045C21.7626 4.78466 21.6654 4.85039 21.5696 4.9207C21.4738 4.99102 21.3794 5.06286 21.2878 5.13929C21.1962 5.21572 21.1059 5.29368 21.0171 5.3747C20.4035 5.94334 19.4636 7.19222 19.2401 8.05589L19.2332 8.08187C19.086 8.36161 18.9666 8.65663 18.8223 8.9379C18.714 9.37355 18.4044 9.96054 18.2184 10.3779C17.6825 11.5809 17.03 13.3999 15.9375 14.0954C15.4905 14.3798 14.9282 14.5479 14.4215 14.3843C13.8787 14.2101 13.4803 13.6827 13.2276 13.1492C12.5085 11.6252 12.3724 9.47139 10.6454 8.85382C10.608 8.84007 10.5691 8.82631 10.5302 8.81561C10.4913 8.80338 10.4525 8.79268 10.4136 8.78351C10.3747 8.77434 10.3345 8.76517 10.2956 8.75752C10.2553 8.74988 10.2165 8.74376 10.1762 8.73765C10.136 8.73306 10.0971 8.72848 10.0568 8.72542C10.0166 8.72236 9.97631 8.72084 9.93605 8.71931C9.89579 8.71778 9.85553 8.71931 9.81527 8.71931C9.77501 8.72084 9.73475 8.72236 9.69449 8.72695C9.65423 8.73001 9.61397 8.73459 9.5751 8.74071C9.53484 8.74682 9.49597 8.75294 9.45571 8.76058C9.41684 8.76822 9.37658 8.77739 9.33771 8.78809C9.29884 8.79879 9.25997 8.8095 9.2211 8.82172C9.18223 8.83395 9.14474 8.84771 9.10587 8.86147C9.06839 8.87523 9.03091 8.89204 8.99342 8.90733C8.95594 8.92414 8.91985 8.94096 8.88236 8.9593C8.84627 8.97764 8.81017 8.99751 8.77408 9.01739C8.27014 9.30935 8.12576 9.64718 7.77454 10.092C7.78287 9.26349 7.99666 8.41511 8.30901 7.66609C9.1614 5.62845 10.719 3.79411 12.3933 2.54371C12.7153 2.30371 13.0624 2.02092 13.4261 1.86959Z" fill="#EE342A"/>
</svg>
