<svg width="209" height="57" viewBox="0 0 209 57" fill="none" xmlns="http://www.w3.org/2000/svg">
<path d="M54.4205 27.9482V9.92126H56.9346V27.9482H54.4205ZM48.1084 11.6865V9.38633H63.22V11.6865H48.1084ZM68.1457 28.2157C66.8797 28.2157 65.7385 27.9304 64.7222 27.3598C63.7058 26.7714 62.9034 25.9779 62.315 24.9794C61.7266 23.9809 61.4324 22.8486 61.4324 21.5826C61.4324 20.3345 61.7177 19.2111 62.2883 18.2126C62.8767 17.2141 63.6612 16.4295 64.6419 15.8589C65.6405 15.2705 66.7549 14.9763 67.9852 14.9763C69.1621 14.9763 70.1962 15.2438 71.0878 15.7787C71.9972 16.3136 72.7015 17.0536 73.2007 17.9986C73.7178 18.9437 73.9764 20.0135 73.9764 21.2082C73.9764 21.3865 73.9675 21.5826 73.9496 21.7966C73.9318 21.9927 73.8961 22.2245 73.8427 22.492H63.1174V20.486H72.5588L71.6762 21.2617C71.6762 20.4058 71.5246 19.6836 71.2215 19.0952C70.9184 18.489 70.4905 18.0254 69.9377 17.7044C69.3849 17.3656 68.7163 17.1962 67.9317 17.1962C67.1115 17.1962 66.3894 17.3745 65.7653 17.7312C65.1412 18.0878 64.6598 18.587 64.321 19.229C63.9822 19.8709 63.8128 20.6287 63.8128 21.5024C63.8128 22.3939 63.9911 23.1785 64.3477 23.8561C64.7043 24.5158 65.2125 25.0329 65.8723 25.4073C66.532 25.764 67.2898 25.9423 68.1457 25.9423C68.8589 25.9423 69.5098 25.8175 70.0982 25.5678C70.7044 25.3182 71.2215 24.9437 71.6495 24.4445L73.2007 26.0225C72.5945 26.7357 71.8456 27.2796 70.9541 27.654C70.0803 28.0285 69.1442 28.2157 68.1457 28.2157ZM82.405 28.2157C81.1569 28.2157 80.0246 27.9215 79.0082 27.3331C78.0097 26.7447 77.2162 25.9512 76.6278 24.9527C76.0572 23.9363 75.7719 22.813 75.7719 21.5826C75.7719 20.3345 76.0572 19.2111 76.6278 18.2126C77.2162 17.2141 78.0097 16.4295 79.0082 15.8589C80.0246 15.2705 81.1569 14.9763 82.405 14.9763C83.3857 14.9763 84.2951 15.1635 85.1331 15.538C85.9712 15.8946 86.6933 16.4206 87.2996 17.116L85.6948 18.7208C85.3025 18.2572 84.8211 17.9095 84.2505 17.6777C83.6978 17.428 83.0826 17.3032 82.405 17.3032C81.6026 17.3032 80.8894 17.4905 80.2653 17.8649C79.6412 18.2215 79.1509 18.7208 78.7943 19.3627C78.4377 20.0046 78.2593 20.7446 78.2593 21.5826C78.2593 22.4207 78.4377 23.1607 78.7943 23.8026C79.1509 24.4445 79.6412 24.9527 80.2653 25.3271C80.8894 25.7016 81.6026 25.8888 82.405 25.8888C83.0826 25.8888 83.6978 25.7729 84.2505 25.5411C84.8211 25.2914 85.3114 24.9348 85.7216 24.4712L87.2996 26.076C86.7112 26.7536 85.989 27.2796 85.1331 27.654C84.2951 28.0285 83.3857 28.2157 82.405 28.2157ZM98.6736 27.9482V20.5395C98.6736 19.5767 98.3705 18.7832 97.7643 18.1591C97.158 17.535 96.3735 17.223 95.4106 17.223C94.7687 17.223 94.1981 17.3656 93.6988 17.6509C93.1996 17.9362 92.8073 18.3285 92.522 18.8278C92.2367 19.327 92.0941 19.8976 92.0941 20.5395L91.1044 19.9779C91.1044 19.015 91.3184 18.1591 91.7464 17.4102C92.1743 16.6613 92.7716 16.0729 93.5384 15.645C94.3051 15.1992 95.1699 14.9763 96.1327 14.9763C97.0956 14.9763 97.9426 15.1903 98.6736 15.6182C99.4225 16.0462 100.011 16.6435 100.439 17.4102C100.867 18.1769 101.081 19.0596 101.081 20.0581V27.9482H98.6736ZM89.6869 27.9482V8.8514H92.0941V27.9482H89.6869ZM110.331 27.9482V9.38633H112.845V27.9482H110.331ZM112.043 19.7906V17.4905H121.725V19.7906H112.043ZM112.043 11.6865V9.38633H122.18V11.6865H112.043ZM125.053 27.9482V15.2438H127.46V27.9482H125.053ZM127.46 20.7L126.55 20.2988C126.55 18.6762 126.925 17.3835 127.674 16.4206C128.423 15.4577 129.501 14.9763 130.91 14.9763C131.552 14.9763 132.131 15.0922 132.649 15.324C133.166 15.538 133.647 15.9035 134.093 16.4206L132.515 18.0521C132.247 17.7668 131.953 17.5618 131.632 17.437C131.311 17.3121 130.937 17.2497 130.509 17.2497C129.617 17.2497 128.886 17.535 128.316 18.1056C127.745 18.6762 127.46 19.541 127.46 20.7ZM141.254 28.2157C139.988 28.2157 138.847 27.9304 137.83 27.3598C136.814 26.7714 136.012 25.9779 135.423 24.9794C134.835 23.9809 134.541 22.8486 134.541 21.5826C134.541 20.3345 134.826 19.2111 135.396 18.2126C135.985 17.2141 136.769 16.4295 137.75 15.8589C138.749 15.2705 139.863 14.9763 141.093 14.9763C142.27 14.9763 143.304 15.2438 144.196 15.7787C145.105 16.3136 145.81 17.0536 146.309 17.9986C146.826 18.9437 147.085 20.0135 147.085 21.2082C147.085 21.3865 147.076 21.5826 147.058 21.7966C147.04 21.9927 147.004 22.2245 146.951 22.492H136.226V20.486H145.667L144.784 21.2617C144.784 20.4058 144.633 19.6836 144.33 19.0952C144.027 18.489 143.599 18.0254 143.046 17.7044C142.493 17.3656 141.824 17.1962 141.04 17.1962C140.22 17.1962 139.498 17.3745 138.873 17.7312C138.249 18.0878 137.768 18.587 137.429 19.229C137.09 19.8709 136.921 20.6287 136.921 21.5024C136.921 22.3939 137.099 23.1785 137.456 23.8561C137.813 24.5158 138.321 25.0329 138.98 25.4073C139.64 25.764 140.398 25.9423 141.254 25.9423C141.967 25.9423 142.618 25.8175 143.206 25.5678C143.813 25.3182 144.33 24.9437 144.758 24.4445L146.309 26.0225C145.703 26.7357 144.954 27.2796 144.062 27.654C143.189 28.0285 142.252 28.2157 141.254 28.2157ZM153.748 28.2157C153.035 28.2157 152.357 28.1266 151.715 27.9482C151.091 27.7521 150.512 27.4846 149.977 27.1459C149.442 26.7892 148.978 26.3702 148.586 25.8888L150.137 24.3375C150.601 24.9081 151.136 25.336 151.742 25.6213C152.348 25.8888 153.026 26.0225 153.775 26.0225C154.524 26.0225 155.103 25.8977 155.513 25.6481C155.923 25.3806 156.128 25.0151 156.128 24.5515C156.128 24.0879 155.959 23.7312 155.62 23.4816C155.299 23.2142 154.88 23.0002 154.363 22.8397C153.846 22.6614 153.293 22.492 152.705 22.3315C152.134 22.1532 151.59 21.9303 151.073 21.6629C150.556 21.3954 150.128 21.0299 149.79 20.5663C149.469 20.1027 149.308 19.4875 149.308 18.7208C149.308 17.9541 149.495 17.2943 149.87 16.7416C150.244 16.171 150.761 15.7341 151.421 15.431C152.099 15.1279 152.91 14.9763 153.855 14.9763C154.853 14.9763 155.736 15.1546 156.503 15.5112C157.287 15.85 157.929 16.3671 158.429 17.0625L156.877 18.6138C156.521 18.1502 156.075 17.7936 155.54 17.5439C155.023 17.2943 154.434 17.1695 153.775 17.1695C153.079 17.1695 152.544 17.2943 152.17 17.5439C151.813 17.7757 151.635 18.1056 151.635 18.5336C151.635 18.9615 151.795 19.2914 152.116 19.5232C152.437 19.755 152.856 19.9511 153.374 20.1116C153.908 20.2721 154.461 20.4415 155.032 20.6198C155.602 20.7802 156.146 21.0031 156.663 21.2884C157.18 21.5737 157.599 21.9571 157.92 22.4385C158.259 22.9199 158.429 23.5529 158.429 24.3375C158.429 25.5322 158.001 26.4772 157.145 27.1726C156.307 27.868 155.174 28.2157 153.748 28.2157ZM166.927 28.2157C165.679 28.2157 164.547 27.9215 163.531 27.3331C162.532 26.7447 161.739 25.9512 161.15 24.9527C160.58 23.9363 160.294 22.813 160.294 21.5826C160.294 20.3345 160.58 19.2111 161.15 18.2126C161.739 17.2141 162.532 16.4295 163.531 15.8589C164.547 15.2705 165.679 14.9763 166.927 14.9763C167.908 14.9763 168.817 15.1635 169.656 15.538C170.494 15.8946 171.216 16.4206 171.822 17.116L170.217 18.7208C169.825 18.2572 169.343 17.9095 168.773 17.6777C168.22 17.428 167.605 17.3032 166.927 17.3032C166.125 17.3032 165.412 17.4905 164.788 17.8649C164.164 18.2215 163.673 18.7208 163.317 19.3627C162.96 20.0046 162.782 20.7446 162.782 21.5826C162.782 22.4207 162.96 23.1607 163.317 23.8026C163.673 24.4445 164.164 24.9527 164.788 25.3271C165.412 25.7016 166.125 25.8888 166.927 25.8888C167.605 25.8888 168.22 25.7729 168.773 25.5411C169.343 25.2914 169.834 24.9348 170.244 24.4712L171.822 26.076C171.234 26.7536 170.511 27.2796 169.656 27.654C168.817 28.0285 167.908 28.2157 166.927 28.2157ZM179.752 28.2157C178.504 28.2157 177.381 27.9215 176.382 27.3331C175.383 26.7447 174.59 25.9512 174.002 24.9527C173.413 23.9363 173.119 22.804 173.119 21.5559C173.119 20.3256 173.413 19.22 174.002 18.2393C174.59 17.2408 175.383 16.4473 176.382 15.8589C177.381 15.2705 178.504 14.9763 179.752 14.9763C180.982 14.9763 182.097 15.2705 183.095 15.8589C184.112 16.4295 184.914 17.2141 185.502 18.2126C186.091 19.2111 186.385 20.3256 186.385 21.5559C186.385 22.804 186.091 23.9363 185.502 24.9527C184.914 25.9512 184.112 26.7447 183.095 27.3331C182.097 27.9215 180.982 28.2157 179.752 28.2157ZM179.752 25.8888C180.554 25.8888 181.268 25.7016 181.892 25.3271C182.516 24.9527 183.006 24.4445 183.363 23.8026C183.719 23.1428 183.898 22.3939 183.898 21.5559C183.898 20.7357 183.71 20.0046 183.336 19.3627C182.979 18.7208 182.489 18.2215 181.865 17.8649C181.259 17.4905 180.554 17.3032 179.752 17.3032C178.95 17.3032 178.236 17.4905 177.612 17.8649C176.988 18.2215 176.498 18.7208 176.141 19.3627C175.785 20.0046 175.606 20.7357 175.606 21.5559C175.606 22.3939 175.785 23.1428 176.141 23.8026C176.498 24.4445 176.988 24.9527 177.612 25.3271C178.236 25.7016 178.95 25.8888 179.752 25.8888Z" fill="#21282B"/>
<path d="M3.6126 54.2061V46.3192H4.71254V54.2061H3.6126ZM0.851045 47.0915V46.0852H7.46239V47.0915H0.851045ZM10.4365 54.3231C9.88262 54.3231 9.38335 54.1983 8.9387 53.9486C8.49404 53.6912 8.14299 53.344 7.88556 52.9072C7.62813 52.4703 7.49941 51.975 7.49941 51.4211C7.49941 50.875 7.62423 50.3836 7.87386 49.9467C8.13129 49.5099 8.47454 49.1666 8.90359 48.917C9.34045 48.6595 9.82801 48.5308 10.3663 48.5308C10.8811 48.5308 11.3336 48.6478 11.7237 48.8819C12.1215 49.1159 12.4296 49.4396 12.6481 49.8531C12.8743 50.2666 12.9874 50.7346 12.9874 51.2573C12.9874 51.3353 12.9835 51.4211 12.9757 51.5147C12.9679 51.6005 12.9523 51.7019 12.9289 51.819H8.23661V50.9413H12.3672L11.9811 51.2807C11.9811 50.9062 11.9148 50.5903 11.7822 50.3329C11.6495 50.0676 11.4623 49.8648 11.2205 49.7244C10.9787 49.5762 10.6861 49.5021 10.3429 49.5021C9.98403 49.5021 9.66809 49.5801 9.39505 49.7361C9.12202 49.8921 8.91139 50.1105 8.76317 50.3914C8.61495 50.6722 8.54085 51.0037 8.54085 51.386C8.54085 51.776 8.61886 52.1193 8.77487 52.4157C8.93089 52.7044 9.15322 52.9306 9.44186 53.0944C9.7305 53.2504 10.062 53.3284 10.4365 53.3284C10.7485 53.3284 11.0333 53.2738 11.2907 53.1646C11.5559 53.0554 11.7822 52.8916 11.9694 52.6732L12.6481 53.3635C12.3828 53.6756 12.0552 53.9135 11.6651 54.0773C11.2829 54.2412 10.8733 54.3231 10.4365 54.3231ZM17.494 54.3231C16.948 54.3231 16.4526 54.1944 16.008 53.9369C15.5711 53.6795 15.224 53.3323 14.9665 52.8955C14.7169 52.4508 14.5921 51.9594 14.5921 51.4211C14.5921 50.875 14.7169 50.3836 14.9665 49.9467C15.224 49.5099 15.5711 49.1666 16.008 48.917C16.4526 48.6595 16.948 48.5308 17.494 48.5308C17.9231 48.5308 18.3209 48.6127 18.6876 48.7766C19.0542 48.9326 19.3702 49.1627 19.6354 49.4669L18.9333 50.169C18.7617 49.9662 18.5511 49.8141 18.3014 49.7127C18.0596 49.6035 17.7905 49.5489 17.494 49.5489C17.143 49.5489 16.831 49.6308 16.5579 49.7946C16.2849 49.9506 16.0704 50.169 15.9143 50.4499C15.7583 50.7307 15.6803 51.0545 15.6803 51.4211C15.6803 51.7877 15.7583 52.1115 15.9143 52.3923C16.0704 52.6732 16.2849 52.8955 16.5579 53.0593C16.831 53.2231 17.143 53.305 17.494 53.305C17.7905 53.305 18.0596 53.2543 18.3014 53.1529C18.5511 53.0437 18.7656 52.8877 18.945 52.6849L19.6354 53.387C19.378 53.6834 19.062 53.9135 18.6876 54.0773C18.3209 54.2412 17.9231 54.3231 17.494 54.3231ZM25.4307 54.2061V50.9647C25.4307 50.5435 25.2981 50.1963 25.0328 49.9233C24.7676 49.6503 24.4243 49.5138 24.0031 49.5138C23.7223 49.5138 23.4726 49.5762 23.2542 49.701C23.0358 49.8258 22.8641 49.9974 22.7393 50.2158C22.6145 50.4343 22.5521 50.6839 22.5521 50.9647L22.1191 50.719C22.1191 50.2978 22.2128 49.9233 22.4 49.5957C22.5872 49.268 22.8485 49.0106 23.184 48.8234C23.5194 48.6283 23.8978 48.5308 24.319 48.5308C24.7403 48.5308 25.1108 48.6244 25.4307 48.8117C25.7583 48.9989 26.0157 49.2602 26.203 49.5957C26.3902 49.9311 26.4838 50.3173 26.4838 50.7541V54.2061H25.4307ZM21.499 54.2061V45.8512H22.5521V54.2061H21.499ZM32.6605 54.2061V50.9647C32.6605 50.5435 32.5278 50.1963 32.2626 49.9233C31.9974 49.6503 31.6541 49.5138 31.2329 49.5138C30.952 49.5138 30.7024 49.5762 30.484 49.701C30.2655 49.8258 30.0939 49.9974 29.9691 50.2158C29.8443 50.4343 29.7819 50.6839 29.7819 50.9647L29.3489 50.719C29.3489 50.2978 29.4425 49.9233 29.6298 49.5957C29.817 49.268 30.0783 49.0106 30.4138 48.8234C30.7492 48.6283 31.1276 48.5308 31.5488 48.5308C31.9701 48.5308 32.3406 48.6361 32.6605 48.8468C32.9881 49.0574 33.2455 49.3343 33.4328 49.6776C33.62 50.013 33.7136 50.3719 33.7136 50.7541V54.2061H32.6605ZM28.7288 54.2061V48.6478H29.7819V54.2061H28.7288ZM38.4978 54.3231C37.9517 54.3231 37.4602 54.1944 37.0234 53.9369C36.5865 53.6795 36.2394 53.3323 35.9819 52.8955C35.7245 52.4508 35.5958 51.9555 35.5958 51.4094C35.5958 50.8711 35.7245 50.3875 35.9819 49.9584C36.2394 49.5216 36.5865 49.1744 37.0234 48.917C37.4602 48.6595 37.9517 48.5308 38.4978 48.5308C39.036 48.5308 39.5236 48.6595 39.9605 48.917C40.4051 49.1666 40.7562 49.5099 41.0136 49.9467C41.271 50.3836 41.3997 50.8711 41.3997 51.4094C41.3997 51.9555 41.271 52.4508 41.0136 52.8955C40.7562 53.3323 40.4051 53.6795 39.9605 53.9369C39.5236 54.1944 39.036 54.3231 38.4978 54.3231ZM38.4978 53.305C38.8488 53.305 39.1608 53.2231 39.4339 53.0593C39.7069 52.8955 39.9214 52.6732 40.0775 52.3923C40.2335 52.1037 40.3115 51.776 40.3115 51.4094C40.3115 51.0506 40.2296 50.7307 40.0658 50.4499C39.9097 50.169 39.6952 49.9506 39.4222 49.7946C39.1569 49.6308 38.8488 49.5489 38.4978 49.5489C38.1467 49.5489 37.8347 49.6308 37.5616 49.7946C37.2886 49.9506 37.0741 50.169 36.9181 50.4499C36.762 50.7307 36.684 51.0506 36.684 51.4094C36.684 51.776 36.762 52.1037 36.9181 52.3923C37.0741 52.6732 37.2886 52.8955 37.5616 53.0593C37.8347 53.2231 38.1467 53.305 38.4978 53.305ZM43.4054 54.2061V45.8512H44.4586V54.2061H43.4054ZM49.3578 54.3231C48.8117 54.3231 48.3202 54.1944 47.8834 53.9369C47.4465 53.6795 47.0994 53.3323 46.8419 52.8955C46.5845 52.4508 46.4558 51.9555 46.4558 51.4094C46.4558 50.8711 46.5845 50.3875 46.8419 49.9584C47.0994 49.5216 47.4465 49.1744 47.8834 48.917C48.3202 48.6595 48.8117 48.5308 49.3578 48.5308C49.896 48.5308 50.3836 48.6595 50.8204 48.917C51.2651 49.1666 51.6161 49.5099 51.8736 49.9467C52.131 50.3836 52.2597 50.8711 52.2597 51.4094C52.2597 51.9555 52.131 52.4508 51.8736 52.8955C51.6161 53.3323 51.2651 53.6795 50.8204 53.9369C50.3836 54.1944 49.896 54.3231 49.3578 54.3231ZM49.3578 53.305C49.7088 53.305 50.0208 53.2231 50.2939 53.0593C50.5669 52.8955 50.7814 52.6732 50.9375 52.3923C51.0935 52.1037 51.1715 51.776 51.1715 51.4094C51.1715 51.0506 51.0896 50.7307 50.9258 50.4499C50.7697 50.169 50.5552 49.9506 50.2822 49.7946C50.0169 49.6308 49.7088 49.5489 49.3578 49.5489C49.0067 49.5489 48.6947 49.6308 48.4216 49.7946C48.1486 49.9506 47.9341 50.169 47.7781 50.4499C47.622 50.7307 47.544 51.0506 47.544 51.4094C47.544 51.776 47.622 52.1037 47.7781 52.3923C47.9341 52.6732 48.1486 52.8955 48.4216 53.0593C48.6947 53.2231 49.0067 53.305 49.3578 53.305ZM56.5706 56.6517C56.0012 56.6517 55.4941 56.5464 55.0494 56.3357C54.6126 56.1251 54.2615 55.8287 53.9963 55.4464L54.675 54.756C54.9012 55.0447 55.1703 55.2631 55.4824 55.4113C55.7944 55.5673 56.165 55.6453 56.594 55.6453C57.1635 55.6453 57.6121 55.4932 57.9397 55.189C58.2751 54.8925 58.4429 54.4908 58.4429 53.9837V52.603L58.6301 51.3509L58.4429 50.1105V48.6478H59.496V53.9837C59.496 54.5142 59.3712 54.9784 59.1216 55.3762C58.8797 55.7741 58.5365 56.0861 58.0918 56.3123C57.655 56.5386 57.1479 56.6517 56.5706 56.6517ZM56.5706 54.1124C56.0636 54.1124 55.6072 53.9915 55.2016 53.7497C54.8037 53.5079 54.4878 53.1763 54.2537 52.7551C54.0197 52.326 53.9027 51.8463 53.9027 51.3158C53.9027 50.7853 54.0197 50.3134 54.2537 49.8999C54.4878 49.4787 54.8037 49.1471 55.2016 48.9053C55.6072 48.6556 56.0636 48.5308 56.5706 48.5308C57.0075 48.5308 57.3936 48.6166 57.7291 48.7883C58.0645 48.9599 58.3298 49.2017 58.5248 49.5138C58.7276 49.818 58.8368 50.1768 58.8524 50.5903V52.0647C58.829 52.4703 58.7159 52.8292 58.5131 53.1412C58.318 53.4455 58.0528 53.6834 57.7174 53.855C57.3819 54.0266 56.9997 54.1124 56.5706 54.1124ZM56.7813 53.1178C57.1245 53.1178 57.4248 53.0437 57.6823 52.8955C57.9475 52.7473 58.1503 52.5405 58.2907 52.2753C58.4312 52.0023 58.5014 51.6863 58.5014 51.3275C58.5014 50.9686 58.4273 50.6566 58.279 50.3914C58.1386 50.1183 57.9397 49.9077 57.6823 49.7595C57.4248 49.6035 57.1206 49.5255 56.7696 49.5255C56.4185 49.5255 56.1104 49.6035 55.8451 49.7595C55.5799 49.9077 55.3693 50.1183 55.2133 50.3914C55.065 50.6566 54.9909 50.9647 54.9909 51.3158C54.9909 51.6668 55.065 51.9789 55.2133 52.2519C55.3693 52.5249 55.5799 52.7395 55.8451 52.8955C56.1182 53.0437 56.4302 53.1178 56.7813 53.1178ZM63.6863 54.2529L61.2758 48.6478H62.446L64.2363 53.0359H63.8618L65.7458 48.6478H66.9159L64.3182 54.2529H63.6863ZM62.0949 56.5347L63.7331 53.1763L64.3182 54.2529L63.2651 56.5347H62.0949ZM75.817 54.3231C75.2319 54.3231 74.6898 54.2178 74.1905 54.0071C73.6913 53.7887 73.2544 53.4884 72.8799 53.1061C72.5133 52.7239 72.2286 52.2792 72.0257 51.7721C71.8229 51.2651 71.7215 50.7229 71.7215 50.1456C71.7215 49.5606 71.8229 49.0145 72.0257 48.5074C72.2286 48.0004 72.5133 47.5596 72.8799 47.1852C73.2544 46.8029 73.6874 46.5065 74.1788 46.2958C74.6781 46.0774 75.2202 45.9682 75.8053 45.9682C76.445 45.9682 77.0067 46.0774 77.4903 46.2958C77.974 46.5143 78.4031 46.8107 78.7775 47.1852L78.0169 47.9458C77.7595 47.6571 77.4435 47.4309 77.0691 47.2671C76.7024 47.1032 76.2812 47.0213 75.8053 47.0213C75.3763 47.0213 74.9823 47.0993 74.6235 47.2554C74.2646 47.4036 73.9526 47.6181 73.6874 47.8989C73.4221 48.1798 73.2154 48.5113 73.0672 48.8936C72.9268 49.2758 72.8565 49.6932 72.8565 50.1456C72.8565 50.5981 72.9268 51.0154 73.0672 51.3977C73.2154 51.7799 73.4221 52.1115 73.6874 52.3923C73.9526 52.6732 74.2646 52.8916 74.6235 53.0476C74.9823 53.1958 75.3763 53.2699 75.8053 53.2699C76.3124 53.2699 76.7531 53.188 77.1276 53.0242C77.502 52.8526 77.818 52.6225 78.0754 52.3338L78.836 53.0827C78.4616 53.4728 78.0208 53.777 77.5137 53.9954C77.0145 54.2139 76.4489 54.3231 75.817 54.3231ZM83.1641 54.3231C82.618 54.3231 82.1266 54.1944 81.6897 53.9369C81.2528 53.6795 80.9057 53.3323 80.6483 52.8955C80.3908 52.4508 80.2621 51.9555 80.2621 51.4094C80.2621 50.8711 80.3908 50.3875 80.6483 49.9584C80.9057 49.5216 81.2528 49.1744 81.6897 48.917C82.1266 48.6595 82.618 48.5308 83.1641 48.5308C83.7024 48.5308 84.1899 48.6595 84.6268 48.917C85.0714 49.1666 85.4225 49.5099 85.6799 49.9467C85.9373 50.3836 86.0661 50.8711 86.0661 51.4094C86.0661 51.9555 85.9373 52.4508 85.6799 52.8955C85.4225 53.3323 85.0714 53.6795 84.6268 53.9369C84.1899 54.1944 83.7024 54.3231 83.1641 54.3231ZM83.1641 53.305C83.5151 53.305 83.8272 53.2231 84.1002 53.0593C84.3732 52.8955 84.5878 52.6732 84.7438 52.3923C84.8998 52.1037 84.9778 51.776 84.9778 51.4094C84.9778 51.0506 84.8959 50.7307 84.7321 50.4499C84.5761 50.169 84.3615 49.9506 84.0885 49.7946C83.8233 49.6308 83.5151 49.5489 83.1641 49.5489C82.813 49.5489 82.501 49.6308 82.228 49.7946C81.9549 49.9506 81.7404 50.169 81.5844 50.4499C81.4284 50.7307 81.3504 51.0506 81.3504 51.4094C81.3504 51.776 81.4284 52.1037 81.5844 52.3923C81.7404 52.6732 81.9549 52.8955 82.228 53.0593C82.501 53.2231 82.813 53.305 83.1641 53.305ZM92.0035 54.2061V50.9647C92.0035 50.5435 91.8709 50.1963 91.6056 49.9233C91.3404 49.6503 90.9971 49.5138 90.5759 49.5138C90.2951 49.5138 90.0454 49.5762 89.827 49.701C89.6086 49.8258 89.4369 49.9974 89.3121 50.2158C89.1873 50.4343 89.1249 50.6839 89.1249 50.9647L88.692 50.719C88.692 50.2978 88.7856 49.9233 88.9728 49.5957C89.16 49.268 89.4213 49.0106 89.7568 48.8234C90.0922 48.6283 90.4706 48.5308 90.8918 48.5308C91.3131 48.5308 91.6836 48.6361 92.0035 48.8468C92.3311 49.0574 92.5886 49.3343 92.7758 49.6776C92.963 50.013 93.0566 50.3719 93.0566 50.7541V54.2061H92.0035ZM88.0718 54.2061V48.6478H89.1249V54.2061H88.0718ZM97.0685 54.3231C96.7564 54.3231 96.46 54.2841 96.1792 54.2061C95.9061 54.1202 95.6526 54.0032 95.4186 53.855C95.1845 53.699 94.9817 53.5157 94.8101 53.305L95.4888 52.6264C95.6916 52.876 95.9256 53.0632 96.1909 53.188C96.4561 53.305 96.7525 53.3635 97.0802 53.3635C97.4078 53.3635 97.6614 53.3089 97.8408 53.1997C98.0202 53.0827 98.1099 52.9228 98.1099 52.72C98.1099 52.5171 98.0358 52.3611 97.8876 52.2519C97.7472 52.1349 97.5638 52.0413 97.3376 51.9711C97.1114 51.8931 96.8696 51.819 96.6121 51.7487C96.3625 51.6707 96.1246 51.5732 95.8983 51.4562C95.6721 51.3392 95.4849 51.1793 95.3367 50.9764C95.1962 50.7736 95.126 50.5045 95.126 50.169C95.126 49.8336 95.2079 49.545 95.3718 49.3031C95.5356 49.0535 95.7618 48.8624 96.0505 48.7298C96.3469 48.5971 96.7018 48.5308 97.1153 48.5308C97.5521 48.5308 97.9383 48.6088 98.2737 48.7649C98.617 48.9131 98.8978 49.1393 99.1162 49.4435L98.4376 50.1222C98.2815 49.9194 98.0865 49.7634 97.8525 49.6542C97.6263 49.545 97.3688 49.4904 97.0802 49.4904C96.7759 49.4904 96.5419 49.545 96.3781 49.6542C96.2221 49.7556 96.1441 49.8999 96.1441 50.0871C96.1441 50.2744 96.2143 50.4187 96.3547 50.5201C96.4951 50.6215 96.6784 50.7073 96.9047 50.7775C97.1387 50.8477 97.3805 50.9218 97.6302 50.9998C97.8798 51.0701 98.1177 51.1676 98.3439 51.2924C98.5702 51.4172 98.7535 51.5849 98.8939 51.7955C99.0421 52.0062 99.1162 52.2831 99.1162 52.6264C99.1162 53.149 98.929 53.5625 98.5546 53.8667C98.1879 54.171 97.6926 54.3231 97.0685 54.3231ZM103.349 54.3231C102.897 54.3231 102.487 54.2217 102.121 54.0188C101.762 53.8082 101.481 53.5196 101.278 53.1529C101.075 52.7863 100.974 52.3611 100.974 51.8775V48.6478H102.027V51.8307C102.027 52.1349 102.078 52.4001 102.179 52.6264C102.288 52.8448 102.444 53.0125 102.647 53.1295C102.85 53.2465 103.088 53.305 103.361 53.305C103.775 53.305 104.098 53.1763 104.332 52.9189C104.566 52.6537 104.683 52.2909 104.683 51.8307V48.6478H105.736V51.8775C105.736 52.3611 105.635 52.7863 105.432 53.1529C105.229 53.5196 104.949 53.8082 104.59 54.0188C104.239 54.2217 103.825 54.3231 103.349 54.3231ZM107.967 54.2061V45.8512H109.02V54.2061H107.967ZM112.234 54.2061V46.3192H113.287V54.2061H112.234ZM110.865 49.6074V48.6478H114.657V49.6074H110.865ZM116.519 54.2061V48.6478H117.572V54.2061H116.519ZM117.046 47.5362C116.851 47.5362 116.691 47.4738 116.566 47.349C116.441 47.2164 116.379 47.0525 116.379 46.8575C116.379 46.6703 116.441 46.5143 116.566 46.3895C116.691 46.2568 116.851 46.1905 117.046 46.1905C117.241 46.1905 117.401 46.2568 117.525 46.3895C117.65 46.5143 117.713 46.6703 117.713 46.8575C117.713 47.0525 117.65 47.2164 117.525 47.349C117.401 47.4738 117.241 47.5362 117.046 47.5362ZM123.875 54.2061V50.9647C123.875 50.5435 123.742 50.1963 123.477 49.9233C123.212 49.6503 122.869 49.5138 122.447 49.5138C122.167 49.5138 121.917 49.5762 121.698 49.701C121.48 49.8258 121.308 49.9974 121.184 50.2158C121.059 50.4343 120.996 50.6839 120.996 50.9647L120.563 50.719C120.563 50.2978 120.657 49.9233 120.844 49.5957C121.031 49.268 121.293 49.0106 121.628 48.8234C121.964 48.6283 122.342 48.5308 122.763 48.5308C123.185 48.5308 123.555 48.6361 123.875 48.8468C124.203 49.0574 124.46 49.3343 124.647 49.6776C124.834 50.013 124.928 50.3719 124.928 50.7541V54.2061H123.875ZM119.943 54.2061V48.6478H120.996V54.2061H119.943ZM129.478 56.6517C128.909 56.6517 128.402 56.5464 127.957 56.3357C127.52 56.1251 127.169 55.8287 126.904 55.4464L127.583 54.756C127.809 55.0447 128.078 55.2631 128.39 55.4113C128.702 55.5673 129.073 55.6453 129.502 55.6453C130.071 55.6453 130.52 55.4932 130.847 55.189C131.183 54.8925 131.35 54.4908 131.35 53.9837V52.603L131.538 51.3509L131.35 50.1105V48.6478H132.404V53.9837C132.404 54.5142 132.279 54.9784 132.029 55.3762C131.787 55.7741 131.444 56.0861 130.999 56.3123C130.563 56.5386 130.056 56.6517 129.478 56.6517ZM129.478 54.1124C128.971 54.1124 128.515 53.9915 128.109 53.7497C127.711 53.5079 127.395 53.1763 127.161 52.7551C126.927 52.326 126.81 51.8463 126.81 51.3158C126.81 50.7853 126.927 50.3134 127.161 49.8999C127.395 49.4787 127.711 49.1471 128.109 48.9053C128.515 48.6556 128.971 48.5308 129.478 48.5308C129.915 48.5308 130.301 48.6166 130.637 48.7883C130.972 48.9599 131.237 49.2017 131.432 49.5138C131.635 49.818 131.744 50.1768 131.76 50.5903V52.0647C131.737 52.4703 131.624 52.8292 131.421 53.1412C131.226 53.4455 130.96 53.6834 130.625 53.855C130.29 54.0266 129.907 54.1124 129.478 54.1124ZM129.689 53.1178C130.032 53.1178 130.332 53.0437 130.59 52.8955C130.855 52.7473 131.058 52.5405 131.198 52.2753C131.339 52.0023 131.409 51.6863 131.409 51.3275C131.409 50.9686 131.335 50.6566 131.187 50.3914C131.046 50.1183 130.847 49.9077 130.59 49.7595C130.332 49.6035 130.028 49.5255 129.677 49.5255C129.326 49.5255 129.018 49.6035 128.753 49.7595C128.488 49.9077 128.277 50.1183 128.121 50.3914C127.973 50.6566 127.899 50.9647 127.899 51.3158C127.899 51.6668 127.973 51.9789 128.121 52.2519C128.277 52.5249 128.488 52.7395 128.753 52.8955C129.026 53.0437 129.338 53.1178 129.689 53.1178ZM141.895 54.3231C141.31 54.3231 140.768 54.2178 140.268 54.0071C139.769 53.7887 139.332 53.4884 138.958 53.1061C138.591 52.7239 138.306 52.2792 138.104 51.7721C137.901 51.2651 137.799 50.7229 137.799 50.1456C137.799 49.5606 137.901 49.0145 138.104 48.5074C138.306 48.0004 138.591 47.5596 138.958 47.1852C139.332 46.8029 139.765 46.5065 140.257 46.2958C140.756 46.0774 141.298 45.9682 141.883 45.9682C142.523 45.9682 143.084 46.0774 143.568 46.2958C144.052 46.5143 144.481 46.8107 144.855 47.1852L144.095 47.9458C143.837 47.6571 143.521 47.4309 143.147 47.2671C142.78 47.1032 142.359 47.0213 141.883 47.0213C141.454 47.0213 141.06 47.0993 140.701 47.2554C140.342 47.4036 140.03 47.6181 139.765 47.8989C139.5 48.1798 139.293 48.5113 139.145 48.8936C139.005 49.2758 138.934 49.6932 138.934 50.1456C138.934 50.5981 139.005 51.0154 139.145 51.3977C139.293 51.7799 139.5 52.1115 139.765 52.3923C140.03 52.6732 140.342 52.8916 140.701 53.0476C141.06 53.1958 141.454 53.2699 141.883 53.2699C142.39 53.2699 142.831 53.188 143.205 53.0242C143.58 52.8526 143.896 52.6225 144.153 52.3338L144.914 53.0827C144.539 53.4728 144.099 53.777 143.592 53.9954C143.092 54.2139 142.527 54.3231 141.895 54.3231ZM149.242 54.3231C148.696 54.3231 148.204 54.1944 147.767 53.9369C147.331 53.6795 146.983 53.3323 146.726 52.8955C146.469 52.4508 146.34 51.9555 146.34 51.4094C146.34 50.8711 146.469 50.3875 146.726 49.9584C146.983 49.5216 147.331 49.1744 147.767 48.917C148.204 48.6595 148.696 48.5308 149.242 48.5308C149.78 48.5308 150.268 48.6595 150.705 48.917C151.149 49.1666 151.5 49.5099 151.758 49.9467C152.015 50.3836 152.144 50.8711 152.144 51.4094C152.144 51.9555 152.015 52.4508 151.758 52.8955C151.5 53.3323 151.149 53.6795 150.705 53.9369C150.268 54.1944 149.78 54.3231 149.242 54.3231ZM149.242 53.305C149.593 53.305 149.905 53.2231 150.178 53.0593C150.451 52.8955 150.666 52.6732 150.822 52.3923C150.978 52.1037 151.056 51.776 151.056 51.4094C151.056 51.0506 150.974 50.7307 150.81 50.4499C150.654 50.169 150.439 49.9506 150.166 49.7946C149.901 49.6308 149.593 49.5489 149.242 49.5489C148.891 49.5489 148.579 49.6308 148.306 49.7946C148.033 49.9506 147.818 50.169 147.662 50.4499C147.506 50.7307 147.428 51.0506 147.428 51.4094C147.428 51.776 147.506 52.1037 147.662 52.3923C147.818 52.6732 148.033 52.8955 148.306 53.0593C148.579 53.2231 148.891 53.305 149.242 53.305ZM154.15 54.2061V48.6478H155.203V54.2061H154.15ZM157.906 54.2061V50.8477C157.906 50.4343 157.777 50.1105 157.52 49.8765C157.27 49.6347 156.954 49.5138 156.572 49.5138C156.314 49.5138 156.084 49.5684 155.881 49.6776C155.679 49.7868 155.515 49.9389 155.39 50.1339C155.265 50.329 155.203 50.563 155.203 50.836L154.77 50.6254C154.77 50.2041 154.859 49.8375 155.039 49.5255C155.226 49.2134 155.48 48.9716 155.799 48.8C156.119 48.6205 156.478 48.5308 156.876 48.5308C157.266 48.5308 157.617 48.6166 157.929 48.7883C158.249 48.9599 158.499 49.2017 158.678 49.5138C158.865 49.8258 158.959 50.1963 158.959 50.6254V54.2061H157.906ZM161.662 54.2061V50.8477C161.662 50.4343 161.533 50.1105 161.276 49.8765C161.026 49.6347 160.714 49.5138 160.34 49.5138C160.082 49.5138 159.848 49.5684 159.638 49.6776C159.435 49.7868 159.271 49.9389 159.146 50.1339C159.021 50.329 158.959 50.563 158.959 50.836L158.362 50.6254C158.385 50.1963 158.499 49.8297 158.701 49.5255C158.912 49.2134 159.181 48.9716 159.509 48.8C159.836 48.6205 160.195 48.5308 160.585 48.5308C160.991 48.5308 161.354 48.6166 161.674 48.7883C161.993 48.9599 162.247 49.2017 162.434 49.5138C162.629 49.8258 162.727 50.2002 162.727 50.6371V54.2061H161.662ZM167.904 54.3231C167.483 54.3231 167.101 54.2373 166.758 54.0656C166.422 53.8862 166.153 53.6405 165.95 53.3284C165.747 53.0164 165.634 52.6615 165.611 52.2636V50.5903C165.634 50.1846 165.747 49.8297 165.95 49.5255C166.161 49.2134 166.434 48.9716 166.769 48.8C167.112 48.6205 167.491 48.5308 167.904 48.5308C168.411 48.5308 168.868 48.6595 169.273 48.917C169.687 49.1744 170.011 49.5216 170.245 49.9584C170.479 50.3953 170.596 50.8867 170.596 51.4328C170.596 51.9789 170.479 52.4703 170.245 52.9072C170.011 53.344 169.687 53.6912 169.273 53.9486C168.868 54.1983 168.411 54.3231 167.904 54.3231ZM167.729 53.3284C168.08 53.3284 168.388 53.2465 168.653 53.0827C168.918 52.9189 169.129 52.6966 169.285 52.4157C169.441 52.1271 169.519 51.7955 169.519 51.4211C169.519 51.0545 169.441 50.7268 169.285 50.4382C169.129 50.1495 168.918 49.9272 168.653 49.7712C168.388 49.6074 168.084 49.5255 167.74 49.5255C167.389 49.5255 167.081 49.6074 166.816 49.7712C166.551 49.9272 166.344 50.1495 166.196 50.4382C166.048 50.7268 165.974 51.0584 165.974 51.4328C165.974 51.7994 166.044 52.1271 166.184 52.4157C166.332 52.6966 166.539 52.9189 166.804 53.0827C167.077 53.2465 167.386 53.3284 167.729 53.3284ZM164.979 56.5347V48.6478H166.032V50.1105L165.833 51.4562L166.032 52.8136V56.5347H164.979ZM174.972 54.3231C174.465 54.3231 174.005 54.1983 173.592 53.9486C173.178 53.6912 172.85 53.344 172.609 52.9072C172.375 52.4703 172.258 51.9789 172.258 51.4328C172.258 50.8867 172.375 50.3953 172.609 49.9584C172.85 49.5216 173.174 49.1744 173.58 48.917C173.993 48.6595 174.457 48.5308 174.972 48.5308C175.394 48.5308 175.768 48.6205 176.096 48.8C176.431 48.9716 176.7 49.2134 176.903 49.5255C177.106 49.8297 177.219 50.1846 177.242 50.5903V52.2636C177.219 52.6615 177.106 53.0164 176.903 53.3284C176.708 53.6405 176.443 53.8862 176.107 54.0656C175.78 54.2373 175.401 54.3231 174.972 54.3231ZM175.148 53.3284C175.671 53.3284 176.092 53.1529 176.412 52.8019C176.731 52.443 176.891 51.9867 176.891 51.4328C176.891 51.0506 176.817 50.719 176.669 50.4382C176.529 50.1495 176.326 49.9272 176.061 49.7712C175.795 49.6074 175.487 49.5255 175.136 49.5255C174.785 49.5255 174.473 49.6074 174.2 49.7712C173.935 49.935 173.724 50.1612 173.568 50.4499C173.42 50.7307 173.346 51.0545 173.346 51.4211C173.346 51.7955 173.42 52.1271 173.568 52.4157C173.724 52.6966 173.939 52.9189 174.212 53.0827C174.485 53.2465 174.797 53.3284 175.148 53.3284ZM176.821 54.2061V52.7083L177.02 51.3509L176.821 50.0052V48.6478H177.886V54.2061H176.821ZM184.17 54.2061V50.9647C184.17 50.5435 184.037 50.1963 183.772 49.9233C183.507 49.6503 183.164 49.5138 182.743 49.5138C182.462 49.5138 182.212 49.5762 181.994 49.701C181.775 49.8258 181.604 49.9974 181.479 50.2158C181.354 50.4343 181.292 50.6839 181.292 50.9647L180.859 50.719C180.859 50.2978 180.952 49.9233 181.139 49.5957C181.327 49.268 181.588 49.0106 181.923 48.8234C182.259 48.6283 182.637 48.5308 183.058 48.5308C183.48 48.5308 183.85 48.6361 184.17 48.8468C184.498 49.0574 184.755 49.3343 184.942 49.6776C185.13 50.013 185.223 50.3719 185.223 50.7541V54.2061H184.17ZM180.238 54.2061V48.6478H181.292V54.2061H180.238ZM189.294 54.2529L186.883 48.6478H188.053L189.844 53.0359H189.469L191.353 48.6478H192.523L189.925 54.2529H189.294ZM187.702 56.5347L189.34 53.1763L189.925 54.2529L188.872 56.5347H187.702Z" fill="#878787"/>
<rect x="0.5" y="0.948242" width="33.4328" height="33.4328" fill="#878787"/>
</svg>
