<svg width="17" height="17" viewBox="0 0 17 17" fill="none" xmlns="http://www.w3.org/2000/svg">
<path d="M10.3047 4.70548L14.076 8.47681C14.201 8.60183 14.2712 8.77137 14.2712 8.94815C14.2712 9.12492 14.201 9.29446 14.076 9.41948L10.3047 13.1908C10.1789 13.3123 10.0105 13.3794 9.83573 13.3779C9.66093 13.3764 9.49373 13.3063 9.37012 13.1827C9.24652 13.0591 9.1764 12.8919 9.17488 12.7171C9.17337 12.5423 9.24056 12.3739 9.362 12.2481L11.9953 9.61481H3.16667C2.98986 9.61481 2.82029 9.54457 2.69526 9.41955C2.57024 9.29453 2.5 9.12496 2.5 8.94815C2.5 8.77133 2.57024 8.60177 2.69526 8.47674C2.82029 8.35172 2.98986 8.28148 3.16667 8.28148H11.9953L9.362 5.64815C9.29833 5.58665 9.24754 5.51308 9.2126 5.43175C9.17766 5.35041 9.15927 5.26293 9.1585 5.17441C9.15773 5.08589 9.1746 4.99811 9.20812 4.91618C9.24164 4.83424 9.29114 4.75981 9.35374 4.69722C9.41633 4.63462 9.49077 4.58512 9.5727 4.5516C9.65463 4.51808 9.74241 4.50121 9.83093 4.50198C9.91945 4.50275 10.0069 4.52114 10.0883 4.55608C10.1696 4.59102 10.2432 4.64181 10.3047 4.70548Z" fill="white"/>
</svg>
