<svg width="64" height="64" viewBox="0 0 64 64" fill="none" xmlns="http://www.w3.org/2000/svg">
<path d="M32 48V40" stroke="#EE342A" stroke-width="2" stroke-linecap="round" stroke-linejoin="round"/>
<path d="M26.6667 53.3333H8" stroke="#EE342A" stroke-width="2" stroke-linecap="round" stroke-linejoin="round"/>
<path d="M37.334 53.3333H56.0007" stroke="#EE342A" stroke-width="2" stroke-linecap="round" stroke-linejoin="round"/>
<path d="M37.3327 53.3333C37.3327 56.2789 34.9449 58.6667 31.9993 58.6667C29.0538 58.6667 26.666 56.2789 26.666 53.3333C26.666 50.3878 29.0538 48 31.9993 48C34.9449 48 37.3327 50.3878 37.3327 53.3333Z" stroke="#EE342A" stroke-width="2" stroke-linecap="round" stroke-linejoin="round"/>
<path d="M49.3327 22.6666C49.3327 32.2395 41.5723 39.9999 31.9993 39.9999C22.4264 39.9999 14.666 32.2395 14.666 22.6666M49.3327 22.6666C49.3327 13.0936 41.5723 5.33325 31.9993 5.33325C22.4264 5.33325 14.666 13.0936 14.666 22.6666M49.3327 22.6666H14.666" stroke="#EE342A" stroke-width="2" stroke-linecap="round" stroke-linejoin="round"/>
<path d="M38.6673 22.6666C38.6673 32.2395 35.6825 39.9999 32.0007 39.9999C28.3188 39.9999 25.334 32.2395 25.334 22.6666C25.334 13.0936 28.3188 5.33325 32.0007 5.33325C35.6825 5.33325 38.6673 13.0936 38.6673 22.6666Z" stroke="#EE342A" stroke-width="2" stroke-linecap="round" stroke-linejoin="round"/>
<path d="M49.3327 22.6667H14.666" stroke="#EE342A" stroke-width="2" stroke-linecap="round" stroke-linejoin="round"/>
</svg>
