<svg width="48" height="48" viewBox="0 0 48 48" fill="none" xmlns="http://www.w3.org/2000/svg">
<path d="M16.9971 7.68583C17.7237 7.68583 18.3931 8.07985 18.7457 8.71509L21.1922 13.1219C21.5125 13.6989 21.5275 14.3968 21.2324 14.9871L18.8756 19.7008C18.8756 19.7008 19.5585 23.2122 22.417 26.0706C25.2754 28.929 28.7751 29.6002 28.7751 29.6002L33.488 27.2438C34.0787 26.9484 34.7771 26.9637 35.3543 27.2846L39.7736 29.7416C40.4082 30.0945 40.8018 30.7635 40.8018 31.4896L40.8018 36.5631C40.8018 39.1468 38.4018 41.0129 35.9538 40.1868C30.9259 38.4903 23.1212 35.2601 18.1743 30.3132C13.2275 25.3664 9.99729 17.5617 8.30075 12.5338C7.47472 10.0857 9.34081 7.68583 11.9245 7.68583L16.9971 7.68583Z" stroke="#EE342A" stroke-width="2" stroke-linejoin="round"/>
</svg>
