<svg width="32" height="33" viewBox="0 0 32 33" fill="none" xmlns="http://www.w3.org/2000/svg">
<rect width="32" height="32" rx="16" transform="matrix(-1 0 0 1 32 0.948242)" fill="white"/>
<g clip-path="url(#clip0_1_959)">
<path d="M14.1953 12.7055L10.424 16.4768C10.299 16.6018 10.2288 16.7714 10.2288 16.9481C10.2288 17.1249 10.299 17.2945 10.424 17.4195L14.1953 21.1908C14.3211 21.3123 14.4895 21.3794 14.6643 21.3779C14.8391 21.3764 15.0063 21.3063 15.1299 21.1827C15.2535 21.0591 15.3236 20.8919 15.3251 20.7171C15.3266 20.5423 15.2594 20.3739 15.138 20.2481L12.5047 17.6148H21.3333C21.5101 17.6148 21.6797 17.5446 21.8047 17.4195C21.9298 17.2945 22 17.125 22 16.9481C22 16.7713 21.9298 16.6018 21.8047 16.4767C21.6797 16.3517 21.5101 16.2815 21.3333 16.2815H12.5047L15.138 13.6481C15.2017 13.5866 15.2525 13.5131 15.2874 13.4317C15.3223 13.3504 15.3407 13.2629 15.3415 13.1744C15.3423 13.0859 15.3254 12.9981 15.2919 12.9162C15.2584 12.8342 15.2089 12.7598 15.1463 12.6972C15.0837 12.6346 15.0092 12.5851 14.9273 12.5516C14.8454 12.5181 14.7576 12.5012 14.6691 12.502C14.5805 12.5027 14.4931 12.5211 14.4117 12.5561C14.3304 12.591 14.2568 12.6418 14.1953 12.7055Z" fill="#21282B"/>
</g>
<defs>
<clipPath id="clip0_1_959">
<rect width="16" height="16" fill="white" transform="matrix(-1 0 0 1 24 8.94824)"/>
</clipPath>
</defs>
</svg>
