<svg width="32" height="33" viewBox="0 0 32 33" fill="none" xmlns="http://www.w3.org/2000/svg">
<rect y="0.948242" width="32" height="32" rx="16" fill="white"/>
<g clip-path="url(#clip0_1_953)">
<path d="M17.8047 12.7055L21.576 16.4768C21.701 16.6018 21.7712 16.7714 21.7712 16.9481C21.7712 17.1249 21.701 17.2945 21.576 17.4195L17.8047 21.1908C17.6789 21.3123 17.5105 21.3794 17.3357 21.3779C17.1609 21.3764 16.9937 21.3063 16.8701 21.1827C16.7465 21.0591 16.6764 20.8919 16.6749 20.7171C16.6734 20.5423 16.7406 20.3739 16.862 20.2481L19.4953 17.6148H10.6667C10.4899 17.6148 10.3203 17.5446 10.1953 17.4195C10.0702 17.2945 10 17.125 10 16.9481C10 16.7713 10.0702 16.6018 10.1953 16.4767C10.3203 16.3517 10.4899 16.2815 10.6667 16.2815H19.4953L16.862 13.6481C16.7983 13.5866 16.7475 13.5131 16.7126 13.4317C16.6777 13.3504 16.6593 13.2629 16.6585 13.1744C16.6577 13.0859 16.6746 12.9981 16.7081 12.9162C16.7416 12.8342 16.7911 12.7598 16.8537 12.6972C16.9163 12.6346 16.9908 12.5851 17.0727 12.5516C17.1546 12.5181 17.2424 12.5012 17.3309 12.502C17.4195 12.5027 17.5069 12.5211 17.5883 12.5561C17.6696 12.591 17.7432 12.6418 17.8047 12.7055Z" fill="#21282B"/>
</g>
<defs>
<clipPath id="clip0_1_953">
<rect width="16" height="16" fill="white" transform="translate(8 8.94824)"/>
</clipPath>
</defs>
</svg>
