<svg width="64" height="65" viewBox="0 0 64 65" fill="none" xmlns="http://www.w3.org/2000/svg">
<path d="M31.9999 32.9482V16.9482M31.9999 32.9482L18 41.031L31.9999 32.9482ZM31.9999 32.9482L45.9997 41.031L31.9999 32.9482Z" stroke="#EE342A" stroke-width="2" stroke-linecap="round" stroke-linejoin="round"/>
<path d="M18.6667 22.2816C18.6667 25.227 16.2788 27.6149 13.3333 27.6149C10.3878 27.6149 8 25.227 8 22.2816C8 19.3361 10.3878 16.9482 13.3333 16.9482C16.2788 16.9482 18.6667 19.3361 18.6667 22.2816Z" stroke="#EE342A" stroke-width="2" stroke-linecap="round" stroke-linejoin="round"/>
<path d="M18.6667 43.6148C18.6667 46.5603 16.2788 48.9482 13.3333 48.9482C10.3878 48.9482 8 46.5603 8 43.6148C8 40.6694 10.3878 38.2815 13.3333 38.2815C16.2788 38.2815 18.6667 40.6694 18.6667 43.6148Z" stroke="#EE342A" stroke-width="2" stroke-linecap="round" stroke-linejoin="round"/>
<path d="M37.3333 54.2816C37.3333 57.227 34.9455 59.6149 32 59.6149C29.0545 59.6149 26.6667 57.227 26.6667 54.2816C26.6667 51.3361 29.0545 48.9482 32 48.9482C34.9455 48.9482 37.3333 51.3361 37.3333 54.2816Z" stroke="#EE342A" stroke-width="2" stroke-linecap="round" stroke-linejoin="round"/>
<path d="M56 43.6148C56 46.5603 53.6121 48.9482 50.6667 48.9482C47.7212 48.9482 45.3333 46.5603 45.3333 43.6148C45.3333 40.6694 47.7212 38.2815 50.6667 38.2815C53.6121 38.2815 56 40.6694 56 43.6148Z" stroke="#EE342A" stroke-width="2" stroke-linecap="round" stroke-linejoin="round"/>
<path d="M56 22.2816C56 25.227 53.6121 27.6149 50.6667 27.6149C47.7212 27.6149 45.3333 25.227 45.3333 22.2816C45.3333 19.3361 47.7212 16.9482 50.6667 16.9482C53.6121 16.9482 56 19.3361 56 22.2816Z" stroke="#EE342A" stroke-width="2" stroke-linecap="round" stroke-linejoin="round"/>
<path d="M37.3333 11.6148C37.3333 14.5603 34.9455 16.9482 32 16.9482C29.0545 16.9482 26.6667 14.5603 26.6667 11.6148C26.6667 8.66931 29.0545 6.28149 32 6.28149C34.9455 6.28149 37.3333 8.66931 37.3333 11.6148Z" stroke="#EE342A" stroke-width="2" stroke-linecap="round" stroke-linejoin="round"/>
</svg>
