<svg width="32" height="32" viewBox="0 0 32 32" fill="none" xmlns="http://www.w3.org/2000/svg">
<path d="M16 18.6667H12.3814C9.22535 18.6667 6.66669 20.9054 6.66669 23.6667V25.3334M25.3334 9.33335V16C25.3334 16.7073 25.0524 17.3855 24.5523 17.8856C24.0522 18.3857 23.3739 18.6667 22.6667 18.6667H20V25.3334M18.6667 10.6667C18.6667 11.192 18.5632 11.7121 18.3622 12.1974C18.1612 12.6827 17.8665 13.1237 17.4951 13.4951C17.1237 13.8665 16.6827 14.1612 16.1974 14.3622C15.7121 14.5632 15.192 14.6667 14.6667 14.6667C14.1414 14.6667 13.6213 14.5632 13.136 14.3622C12.6507 14.1612 12.2097 13.8665 11.8383 13.4951C11.4668 13.1237 11.1722 12.6827 10.9712 12.1974C10.7701 11.7121 10.6667 11.192 10.6667 10.6667C10.6667 9.60582 11.0881 8.58841 11.8383 7.83826C12.5884 7.08811 13.6058 6.66669 14.6667 6.66669C15.7276 6.66669 16.745 7.08811 17.4951 7.83826C18.2453 8.58841 18.6667 9.60582 18.6667 10.6667Z" stroke="#EE342A" stroke-width="2" stroke-linecap="round" stroke-linejoin="round"/>
</svg>
