<svg width="64" height="65" viewBox="0 0 64 65" fill="none" xmlns="http://www.w3.org/2000/svg">
<circle cx="32" cy="32.9482" r="26.6667" stroke="#EE342A" stroke-width="2" stroke-linejoin="round"/>
<path d="M5.8667 27.615C8.33747 39.787 19.0989 48.9483 31.9999 48.9483C44.901 48.9483 55.6623 39.787 58.1331 27.615" stroke="#EE342A" stroke-width="2" stroke-linecap="round" stroke-linejoin="round"/>
<path d="M7.55225 22.2815C11.6672 31.6996 21.0649 38.2815 32 38.2815C42.9351 38.2815 52.3328 31.6996 56.4477 22.2815" stroke="#EE342A" stroke-width="2" stroke-linecap="round" stroke-linejoin="round"/>
<path d="M10.6647 16.9482C15.5299 23.4253 23.2756 27.6149 32 27.6149C40.7244 27.6149 48.4701 23.4253 53.3533 16.9482" stroke="#EE342A" stroke-width="2" stroke-linecap="round" stroke-linejoin="round"/>
<path d="M15.9974 11.615C20.4547 14.9638 25.9957 16.9483 32.0001 16.9483C38.0045 16.9483 43.5454 14.9638 48.0026 11.615" stroke="#EE342A" stroke-width="2" stroke-linecap="round" stroke-linejoin="round"/>
</svg>
