<svg width="64" height="65" viewBox="0 0 64 65" fill="none" xmlns="http://www.w3.org/2000/svg">
<path d="M24.3784 58.5099C19.9103 57.1796 15.9331 54.7098 12.7838 51.4375C13.9586 50.0451 14.6667 48.246 14.6667 46.2816C14.6667 41.8633 11.0849 38.2816 6.66667 38.2816C6.3994 38.2816 6.13519 38.2947 5.87465 38.3203C5.51973 36.585 5.33334 34.7884 5.33334 32.9482C5.33334 30.1607 5.76103 27.4731 6.55438 24.9475C6.59175 24.948 6.62918 24.9482 6.66667 24.9482C11.0849 24.9482 14.6667 21.3665 14.6667 16.9483C14.6667 15.6799 14.3715 14.4804 13.8461 13.4149C16.9301 10.5474 20.694 8.40144 24.8694 7.24561C26.1925 9.839 28.8889 11.6149 32 11.6149C35.1111 11.6149 37.8075 9.839 39.1306 7.24561C43.306 8.40144 47.07 10.5474 50.1539 13.4149C49.6285 14.4804 49.3333 15.6799 49.3333 16.9483C49.3333 21.3665 52.9151 24.9482 57.3333 24.9482C57.3708 24.9482 57.4083 24.948 57.4456 24.9475C58.239 27.4731 58.6667 30.1607 58.6667 32.9482C58.6667 34.7884 58.4803 36.585 58.1254 38.3203C57.8648 38.2947 57.6006 38.2816 57.3333 38.2816C52.9151 38.2816 49.3333 41.8633 49.3333 46.2816C49.3333 48.246 50.0414 50.0451 51.2162 51.4375C48.0669 54.7098 44.0897 57.1796 39.6216 58.5099C38.5904 55.284 35.568 52.9482 32 52.9482C28.432 52.9482 25.4096 55.284 24.3784 58.5099Z" stroke="#EE342A" stroke-width="2" stroke-linejoin="round"/>
<path d="M32 42.2817C37.1547 42.2817 41.3333 38.103 41.3333 32.9483C41.3333 27.7937 37.1547 23.615 32 23.615C26.8453 23.615 22.6667 27.7937 22.6667 32.9483C22.6667 38.103 26.8453 42.2817 32 42.2817Z" stroke="#EE342A" stroke-width="2" stroke-linejoin="round"/>
</svg>
